<svg width="634" height="388" viewBox="0 0 634 388" fill="none" xmlns="http://www.w3.org/2000/svg">
    <g clip-path="url(#clip0_157_174)">
        <path d="M225 47H136V134H225V47Z" fill="#CCCBCB" />
        <path d="M221 129V105" stroke="#161626" stroke-width="2" stroke-miterlimit="10" />
        <path d="M221 108C223.209 108 225 106.433 225 104.5C225 102.567 223.209 101 221 101C218.791 101 217 102.567 217 104.5C217 106.433 218.791 108 221 108Z" fill="#161626" />
        <path d="M221 120C221 120 220.442 108.804 209 110.105Z" fill="#161626" />
        <path d="M186 129V48" stroke="#161626" stroke-width="2" stroke-miterlimit="10" />
        <path d="M187 51C189.209 51 191 49.433 191 47.5C191 45.567 189.209 44 187 44C184.791 44 183 45.567 183 47.5C183 49.433 184.791 51 187 51Z" fill="#161626" />
        <path d="M175 111C177.209 111 179 109.433 179 107.5C179 105.567 177.209 104 175 104C172.791 104 171 105.567 171 107.5C171 109.433 172.791 111 175 111Z" fill="#161626" />
        <path d="M186 66C186 66 185.488 54.8039 175 56.1053Z" fill="#161626" />
        <path d="M186 96C186 96 185.488 85.9235 175 87.0947Z" fill="#161626" />
        <path d="M185.85 128C185.85 128 188.121 108.962 175 108Z" fill="#161626" />
        <path d="M185.85 128C185.85 128 188.121 108.962 175 108" stroke="#161626" stroke-width="2" stroke-miterlimit="10" />
        <path d="M198 111C200.209 111 202 109.433 202 107.5C202 105.567 200.209 104 198 104C195.791 104 194 105.567 194 107.5C194 109.433 195.791 111 198 111Z" fill="#161626" />
        <path d="M186.177 128C186.177 128 183.494 108.962 199 108Z" fill="#161626" />
        <path d="M186.177 128C186.177 128 183.494 108.962 199 108" stroke="#161626" stroke-width="2" stroke-miterlimit="10" />
        <path d="M198.5 78C200.433 78 202 76.433 202 74.5C202 72.567 200.433 71 198.5 71C196.567 71 195 72.567 195 74.5C195 76.433 196.567 78 198.5 78Z" fill="#161626" />
        <path d="M186.177 96C186.177 96 183.494 76.0102 199 75Z" fill="#161626" />
        <path d="M186.177 96C186.177 96 183.494 76.0102 199 75" stroke="#161626" stroke-width="2" stroke-miterlimit="10" />
        <path d="M160 129V80" stroke="#161626" stroke-width="2" stroke-miterlimit="10" />
        <path d="M160 84C162.209 84 164 82.433 164 80.5C164 78.567 162.209 77 160 77C157.791 77 156 78.567 156 80.5C156 82.433 157.791 84 160 84Z" fill="#161626" />
        <path d="M160 94C160 94 159.442 82.8039 148 84.1053Z" fill="#161626" />
        <path d="M159.836 128C159.836 128 162.314 108.962 148 108Z" fill="#161626" />
        <path d="M159.836 128C159.836 128 162.314 108.962 148 108" stroke="#161626" stroke-width="2" stroke-miterlimit="10" />
        <path d="M148 111C150.209 111 152 109.433 152 107.5C152 105.567 150.209 104 148 104C145.791 104 144 105.567 144 107.5C144 109.433 145.791 111 148 111Z" fill="#161626" />
        <path d="M160 72C168.284 72 175 65.732 175 58C175 50.268 168.284 44 160 44C151.716 44 145 50.268 145 58C145 65.732 151.716 72 160 72Z" fill="#7C9C3C" fill-opacity="0.7" />
        <path d="M231 42H142V129H231V42Z" stroke="#161626" stroke-width="2" stroke-miterlimit="10" />
        <path d="M317 388C492.074 388 634 379.32 634 368.613C634 357.906 492.074 349.227 317 349.227C141.926 349.227 0 357.906 0 368.613C0 379.32 141.926 388 317 388Z" fill="#CCCBCB" />
        <path d="M577.184 0H100.959V16.1103H577.184V0Z" fill="#CCCBCB" />
        <path d="M113.703 11.9872C115.869 11.9872 117.624 10.1204 117.624 7.81771C117.624 5.51498 115.869 3.64825 113.703 3.64825C111.538 3.64825 109.782 5.51498 109.782 7.81771C109.782 10.1204 111.538 11.9872 113.703 11.9872Z" fill="#7C9C3C" />
        <path d="M126.447 11.9872C128.613 11.9872 130.368 10.1204 130.368 7.81771C130.368 5.51498 128.613 3.64825 126.447 3.64825C124.281 3.64825 122.526 5.51498 122.526 7.81771C122.526 10.1204 124.281 11.9872 126.447 11.9872Z" fill="#7C9C3C" />
        <path d="M139.191 11.9872C141.356 11.9872 143.112 10.1204 143.112 7.81771C143.112 5.51498 141.356 3.64825 139.191 3.64825C137.025 3.64825 135.27 5.51498 135.27 7.81771C135.27 10.1204 137.025 11.9872 139.191 11.9872Z" fill="#7C9C3C" />
        <path d="M101.337 286.926L101 287.144V364H577V229L571.327 229.324L101.337 286.926Z" fill="#161626" />
        <path d="M539.513 266.067H406.527V271.768H539.513V266.067Z" fill="white" />
        <path d="M539.513 278.611H406.527V284.313H539.513V278.611Z" fill="white" />
        <path d="M451.57 291.155H406.527V296.857H451.57V291.155Z" fill="white" />
        <path d="M323.902 358.527C326.791 358.527 329.133 356.037 329.133 352.965C329.133 349.893 326.791 347.402 323.902 347.402C321.012 347.402 318.67 349.893 318.67 352.965C318.67 356.037 321.012 358.527 323.902 358.527Z" fill="#F2F2F2" />
        <path d="M339.072 359.083C341.961 359.083 344.303 356.593 344.303 353.521C344.303 350.449 341.961 347.959 339.072 347.959C336.183 347.959 333.841 350.449 333.841 353.521C333.841 356.593 336.183 359.083 339.072 359.083Z" fill="#F2F2F2" />
        <path d="M354.242 359.64C357.131 359.64 359.473 357.149 359.473 354.077C359.473 351.005 357.131 348.515 354.242 348.515C351.353 348.515 349.011 351.005 349.011 354.077C349.011 357.149 351.353 359.64 354.242 359.64Z" fill="#F2F2F2" />
        <path d="M339.119 357.971C341.431 357.971 343.304 355.979 343.304 353.521C343.304 351.063 341.431 349.071 339.119 349.071C336.808 349.071 334.935 351.063 334.935 353.521C334.935 355.979 336.808 357.971 339.119 357.971Z" fill="#3F3D56" />
        <path d="M224.225 173.034H179.181V183.961H224.225V173.034Z" fill="#3F3D56" />
        <path d="M491.962 320.903H446.918V331.83H491.962V320.903Z" fill="white" />
        <path opacity="0.3" d="M201.957 211.688C219.166 211.688 233.116 196.854 233.116 178.556C233.116 160.257 219.166 145.423 201.957 145.423C184.748 145.423 170.798 160.257 170.798 178.556C170.798 196.854 184.748 211.688 201.957 211.688Z" fill="#6C63FF" />
        <path opacity="0.3" d="M201.957 200.644C213.429 200.644 222.729 190.755 222.729 178.556C222.729 166.357 213.429 156.467 201.957 156.467C190.484 156.467 181.184 166.357 181.184 178.556C181.184 190.755 190.484 200.644 201.957 200.644Z" fill="#6C63FF" />
        <path d="M201.957 193.895C209.924 193.895 216.382 187.027 216.382 178.556C216.382 170.084 209.924 163.217 201.957 163.217C193.99 163.217 187.531 170.084 187.531 178.556C187.531 187.027 193.99 193.895 201.957 193.895Z" fill="#7C9C3C" />
        <path opacity="0.3" d="M469.694 359.557C486.902 359.557 500.853 344.723 500.853 326.425C500.853 308.126 486.902 293.292 469.694 293.292C452.485 293.292 438.535 308.126 438.535 326.425C438.535 344.723 452.485 359.557 469.694 359.557Z" fill="#6C63FF" />
        <path opacity="0.3" d="M469.694 348.513C481.166 348.513 490.466 338.624 490.466 326.425C490.466 314.226 481.166 304.336 469.694 304.336C458.221 304.336 448.921 314.226 448.921 326.425C448.921 338.624 458.221 348.513 469.694 348.513Z" fill="#6C63FF" />
        <path d="M469.694 341.764C477.661 341.764 484.119 334.896 484.119 326.425C484.119 317.953 477.661 311.086 469.694 311.086C461.727 311.086 455.268 317.953 455.268 326.425C455.268 334.896 461.727 341.764 469.694 341.764Z" fill="#7C9C3C" />
        <path d="M555.798 345.909C562.901 358.789 577.226 363.889 577.226 363.889C577.226 363.889 580.036 348.105 572.933 335.225C565.83 322.345 551.504 317.245 551.504 317.245C551.504 317.245 548.695 333.029 555.798 345.909Z" fill="#CCCBCB" />
        <path d="M560.23 341.413C572.514 348.648 577.66 363.751 577.66 363.751C577.66 363.751 562.89 367.125 550.606 359.89C538.322 352.656 533.176 337.553 533.176 337.553C533.176 337.553 547.946 334.179 560.23 341.413Z" fill="#6C63FF" />
        <path d="M140.978 124.721C140.85 125.183 140.757 125.651 140.701 126.12L103.907 148.715L95.5446 144.01L85.6178 156.771L99.479 166.66C100.599 167.459 101.981 167.837 103.417 167.737C104.853 167.636 106.266 167.064 107.444 166.105L145.837 134.849C147.458 135.401 149.256 135.417 150.993 134.893C152.73 134.369 154.323 133.331 155.561 131.917C156.798 130.502 157.621 128.779 157.92 126.975C158.219 125.171 157.979 123.373 157.234 121.82C156.489 120.266 155.272 119.031 153.747 118.278C152.221 117.525 150.459 117.291 148.694 117.606C146.93 117.921 145.246 118.77 143.868 120.041C142.489 121.312 141.481 122.945 140.978 124.721Z" fill="#9F616A" />
        <path d="M85.002 378L95.1657 377.999L100 340H85L85.002 378Z" fill="#9F616A" />
        <path d="M82 375.001L103.376 375C106.989 375 110.455 376.327 113.01 378.688C115.564 381.049 117 384.251 117 387.59V387.999L82.0007 388L82 375.001Z" fill="#161626" />
        <path d="M33.0011 378L43.8423 377.999L49 340H33L33.0011 378Z" fill="#9F616A" />
        <path d="M30 375.001L51.3764 375H51.3773C54.9902 375 58.455 376.327 61.0097 378.688C63.5644 381.049 64.9998 384.251 65 387.59V387.999L30.0006 388L30 375.001Z" fill="#2F2E41" />
        <path d="M39.3049 91C36.2541 79.5716 33.6694 66.6815 39.423 56.1558C43.4151 48.8525 58.1834 46.3931 66.6493 49.0242C75.1151 51.6553 81.2359 58.7936 83.9278 66.5766C86.6198 74.3596 86.307 82.7464 85.1337 90.8373C69.5639 90.566 53.9941 90.2946 39.3049 91Z" fill="#2F2E41" />
        <path d="M65.5 91C75.7173 91 84 83.3888 84 74C84 64.6112 75.7173 57 65.5 57C55.2827 57 47 64.6112 47 74C47 83.3888 55.2827 91 65.5 91Z" fill="#9F616A" />
        <path d="M43.0041 70.4326C42.9459 67.6139 43.5077 64.8133 44.6563 62.1972C45.8049 59.581 47.5167 57.2027 49.6901 55.2036C51.8636 53.2045 54.4542 51.6253 57.3081 50.5599C60.162 49.4945 63.2209 48.9647 66.3032 49.0018C69.3854 49.039 72.428 49.6424 75.2502 50.7762C78.0724 51.91 80.6166 53.5511 82.7317 55.602C84.8467 57.6528 86.4894 60.0715 87.5622 62.7145C88.635 65.3574 89.1159 68.1705 88.9764 70.9868C73.3031 71.0172 57.6298 71.0476 43.0041 70.4326Z" fill="#2F2E41" />
        <path d="M49.8888 151L42.1981 162.634C42.1981 162.634 21.1364 198.488 22.389 228.207L27.05 265.225L21.9348 274.309L25.3587 290.291L19 301.74L30.4946 357.013L30.9837 369H49.5706L48.5924 356.791L56.4185 302.944L69.625 245.451L76.4729 295.081L74.0272 307.512L77.2065 317.945L81.6087 350.132L82.0978 365.67L98.9728 367.446L105.332 309.953L109 282.522L89.3399 160.894L49.8888 151Z" fill="#161626" />
        <path d="M47.8318 96L36.4131 100.415L30 124.576L43.5031 156.056L38.4551 171.784C53.7356 195.579 72.649 199.036 94.905 183.777C90.1946 171.738 90.8751 159.359 95.5691 146.727C95.5691 146.727 107.277 136.802 99.0983 123.9L91.2969 104.624L81.638 100.227L47.8318 96Z" fill="#7C9C3C" />
        <path d="M89 109.302L91.6353 105C91.6353 105 98.5852 105.919 101.424 113.273C104.262 120.628 105 150.338 105 150.338L90.1294 151L89 109.302Z" fill="#7C9C3C" />
        <path d="M177.944 112.341L31.7464 198.901C31.3869 199.111 31.006 198.984 30.687 198.55C30.368 198.115 30.1369 197.408 30.0444 196.583C29.9518 195.758 30.0053 194.883 30.1932 194.148C30.3811 193.414 30.688 192.88 31.0467 192.664L177.244 106.104C177.423 105.997 177.609 105.972 177.791 106.031C177.974 106.089 178.15 106.23 178.309 106.444C178.468 106.659 178.607 106.944 178.718 107.282C178.829 107.621 178.91 108.006 178.956 108.417C179.002 108.827 179.012 109.254 178.986 109.674C178.96 110.093 178.898 110.497 178.804 110.861C178.71 111.226 178.586 111.544 178.438 111.798C178.291 112.052 178.123 112.237 177.944 112.341V112.341Z" fill="#6C63FF" />
        <path d="M31.6556 211.077C32.8804 210.521 33.9568 209.728 34.8087 208.752C35.6607 207.777 36.2676 206.643 36.5866 205.43C36.9057 204.217 36.9292 202.956 36.6554 201.734C36.3816 200.512 35.8173 199.36 35.0021 198.359L42 136H26.8769L21.3155 196.89C19.5604 198.25 18.4135 200.149 18.0921 202.228C17.7707 204.307 18.2971 206.421 19.5717 208.169C20.8462 209.918 22.7803 211.18 25.0075 211.716C27.2346 212.252 29.6 212.024 31.6556 211.077V211.077Z" fill="#9F616A" />
        <path d="M46 108.017L40.5719 101.236C40.5719 101.236 31.0259 95.518 26.1593 108.678C21.2927 121.838 22.0415 146.219 22.0415 146.219L40.5719 153L46 108.017Z" fill="#7C9C3C" />
        <path d="M134.435 336.602C136.314 320.762 145.678 305.155 160.088 300C154.405 316.304 154.406 334.189 160.092 350.492C162.306 356.771 165.392 363.513 163.31 369.842C162.014 373.779 158.843 376.792 155.3 378.676C151.756 380.56 147.823 381.457 143.939 382.337L143.174 383C137.009 368.405 132.556 352.442 134.435 336.602Z" fill="#CCCBCB" />
        <path d="M160.905 300.629C152.27 310.379 146.903 322.624 145.566 335.624C145.229 338.418 145.331 341.247 145.868 344.009C146.478 346.682 147.787 349.141 149.659 351.132C151.367 353.024 153.332 354.759 154.554 357.036C155.163 358.211 155.518 359.503 155.597 360.826C155.675 362.149 155.475 363.473 155.01 364.713C153.931 367.833 151.804 370.375 149.638 372.789C147.233 375.469 144.693 378.214 143.671 381.767C143.547 382.197 142.892 381.978 143.015 381.548C144.794 375.367 150.748 371.856 153.587 366.289C154.912 363.691 155.469 360.675 154.226 357.933C153.14 355.535 151.116 353.743 149.369 351.843C147.515 349.928 146.154 347.584 145.406 345.017C144.731 342.292 144.521 339.471 144.785 336.675C145.28 330.371 146.755 324.185 149.157 318.343C151.861 311.66 155.68 305.492 160.448 300.107C160.744 299.773 161.199 300.298 160.905 300.629L160.905 300.629Z" fill="white" />
        <path d="M145.58 331.988C143.595 331.42 141.846 330.037 140.645 328.088C139.444 326.139 138.87 323.749 139.025 321.346C139.057 320.86 139.699 320.898 139.667 321.384C139.519 323.621 140.054 325.847 141.175 327.66C142.297 329.472 143.93 330.752 145.782 331.269C146.184 331.381 145.98 332.1 145.58 331.988Z" fill="white" />
        <path d="M148.178 350.344C152.113 348.079 155.019 344.467 156.314 340.228C156.442 339.808 157.112 340.021 156.984 340.441C155.627 344.85 152.596 348.603 148.495 350.951C148.104 351.175 147.789 350.567 148.178 350.344Z" fill="white" />
        <path d="M152.458 312.403C153.256 312.898 154.135 313.127 155.016 313.068C155.898 313.01 156.755 312.666 157.509 312.068C157.896 311.76 158.209 312.582 157.825 312.888C156.989 313.544 156.042 313.922 155.069 313.989C154.095 314.057 153.123 313.811 152.238 313.275C152.152 313.233 152.08 313.15 152.039 313.043C151.997 312.935 151.989 312.811 152.015 312.695C152.044 312.58 152.108 312.485 152.191 312.43C152.274 312.375 152.37 312.366 152.458 312.403V312.403Z" fill="white" />
        <path d="M205 328.675C204.77 328.828 204.541 328.982 204.311 329.141C201.235 331.222 198.328 333.556 195.62 336.12C195.407 336.315 195.195 336.516 194.988 336.717C188.527 342.967 183.25 350.397 179.425 358.628C177.906 361.905 176.632 365.296 175.613 368.772C174.207 373.573 173.053 378.893 170.269 382.819C169.982 383.232 169.672 383.626 169.338 384H144.177C144.12 383.97 144.062 383.947 144.005 383.917L143 383.965C143.04 383.782 143.086 383.593 143.126 383.41C143.149 383.303 143.178 383.197 143.201 383.091C143.218 383.02 143.235 382.949 143.247 382.884C143.253 382.86 143.258 382.837 143.264 382.819C143.276 382.754 143.293 382.695 143.304 382.636C143.557 381.579 143.817 380.522 144.085 379.465C144.085 379.459 144.085 379.459 144.091 379.454C146.057 371.38 148.948 363.575 152.702 356.202C152.817 355.983 152.931 355.759 153.058 355.54C154.796 352.277 156.791 349.164 159.022 346.235C160.249 344.635 161.554 343.1 162.932 341.635C166.499 337.859 170.621 334.683 175.148 332.223C184.173 327.323 194.621 325.445 204.265 328.439C204.512 328.515 204.753 328.592 205 328.675Z" fill="#CCCBCB" />
        <path d="M204.705 328.7C192.2 331.242 180.796 337.75 172.112 347.302C170.206 349.324 168.625 351.641 167.425 354.168C166.333 356.667 165.916 359.42 166.216 362.141C166.446 364.683 166.969 367.256 166.591 369.811C166.379 371.116 165.899 372.361 165.184 373.463C164.468 374.565 163.533 375.5 162.44 376.206C159.761 378.039 156.598 378.777 153.48 379.389C150.019 380.068 146.413 380.718 143.524 382.93C143.174 383.198 142.788 382.627 143.138 382.359C148.164 378.51 154.899 379.318 160.398 376.6C162.964 375.332 165.172 373.265 165.807 370.327C166.363 367.758 165.826 365.104 165.571 362.532C165.24 359.883 165.549 357.191 166.469 354.691C167.54 352.11 169.032 349.735 170.881 347.667C174.972 342.942 179.763 338.905 185.08 335.703C191.128 332.014 197.748 329.412 204.653 328.007C205.081 327.921 205.13 328.614 204.705 328.7V328.7Z" fill="white" />
        <path d="M175.15 343.871C173.723 342.206 172.962 340.109 173.001 337.955C173.041 335.802 173.88 333.732 175.368 332.116C175.67 331.79 176.214 332.223 175.911 332.55C174.523 334.053 173.742 335.981 173.709 337.986C173.676 339.992 174.394 341.942 175.732 343.486C176.023 343.822 175.439 344.205 175.15 343.871V343.871Z" fill="white" />
        <path d="M166.385 361.258C170.688 361.711 175.009 360.57 178.485 358.065C178.83 357.816 179.208 358.348 178.865 358.596C175.242 361.198 170.743 362.375 166.266 361.895C165.839 361.849 165.961 361.212 166.385 361.258V361.258Z" fill="white" />
        <path d="M191.623 333.164C192.023 334.014 192.607 334.741 193.323 335.279C194.039 335.817 194.865 336.15 195.725 336.247C196.166 336.295 196.041 337.046 195.602 336.998C194.652 336.886 193.741 336.518 192.949 335.925C192.156 335.333 191.507 334.534 191.057 333.598C191.008 333.514 190.99 333.412 191.006 333.314C191.022 333.215 191.071 333.127 191.144 333.067C191.219 333.01 191.311 332.988 191.401 333.006C191.491 333.024 191.57 333.081 191.623 333.164V333.164Z" fill="white" />
        <path d="M564.079 311.544C571.275 319.987 575.748 330.589 576.862 341.845C577.142 344.264 577.057 346.714 576.61 349.105C576.102 351.419 575.011 353.549 573.451 355.273C572.027 356.911 570.39 358.413 569.371 360.385C568.864 361.402 568.568 362.521 568.503 363.666C568.437 364.812 568.604 365.959 568.992 367.032C569.891 369.733 571.663 371.935 573.468 374.024C575.472 376.345 577.589 378.722 578.441 381.798C578.544 382.171 579.09 381.981 578.987 381.609C577.505 376.257 572.543 373.217 570.177 368.396C569.073 366.147 568.61 363.536 569.645 361.161C570.55 359.085 572.237 357.534 573.692 355.889C575.237 354.23 576.372 352.201 576.995 349.978C577.558 347.619 577.733 345.176 577.513 342.756C577.1 337.297 575.871 331.941 573.869 326.882C571.616 321.095 568.433 315.755 564.46 311.092C564.214 310.804 563.834 311.258 564.079 311.544H564.079Z" fill="white" />
        <path d="M576.42 337.99C578.405 337.525 580.154 336.394 581.355 334.799C582.556 333.204 583.13 331.249 582.975 329.283C582.942 328.886 582.301 328.916 582.333 329.314C582.481 331.145 581.946 332.966 580.825 334.449C579.703 335.932 578.07 336.979 576.218 337.402C575.816 337.494 576.02 338.082 576.42 337.99Z" fill="white" />
        <path d="M574.842 354.404C571.344 352.344 568.761 349.061 567.61 345.207C567.496 344.825 566.901 345.019 567.014 345.401C568.22 349.409 570.915 352.821 574.56 354.956C574.908 355.159 575.188 354.606 574.842 354.404V354.404Z" fill="white" />
        <path d="M571.618 321.202C570.954 321.449 570.221 321.563 569.486 321.534C568.752 321.505 568.038 321.333 567.409 321.034C567.087 320.88 566.826 321.291 567.146 321.444C567.843 321.772 568.631 321.961 569.443 321.995C570.254 322.028 571.064 321.906 571.801 321.637C571.874 321.617 571.933 321.575 571.968 321.521C572.002 321.467 572.009 321.405 571.988 321.348C571.963 321.29 571.91 321.242 571.841 321.215C571.772 321.188 571.692 321.183 571.618 321.202L571.618 321.202Z" fill="white" />
        <path d="M525.257 335.611C536.148 337.829 546.081 343.509 553.645 351.845C555.304 353.61 556.682 355.632 557.727 357.837C558.677 360.019 559.041 362.421 558.78 364.795C558.579 367.014 558.124 369.26 558.453 371.49C558.638 372.629 559.056 373.715 559.679 374.677C560.302 375.638 561.116 376.454 562.068 377.071C564.402 378.67 567.157 379.314 569.872 379.848C572.887 380.441 576.027 381.008 578.544 382.939C578.848 383.173 579.185 382.674 578.88 382.441C574.502 379.081 568.636 379.786 563.847 377.415C561.612 376.308 559.689 374.504 559.136 371.94C558.652 369.698 559.119 367.382 559.341 365.137C559.629 362.825 559.361 360.475 558.559 358.294C557.627 356.042 556.327 353.969 554.717 352.164C551.154 348.04 546.98 344.517 542.35 341.723C537.082 338.504 531.317 336.232 525.302 335.007C524.93 334.931 524.887 335.536 525.257 335.611V335.611Z" fill="white" />
        <path d="M551.566 348.882C552.518 347.355 553.026 345.433 552.999 343.459C552.972 341.485 552.413 339.588 551.422 338.106C551.22 337.807 550.857 338.205 551.059 338.504C551.985 339.882 552.505 341.649 552.527 343.487C552.549 345.326 552.071 347.114 551.178 348.529C550.985 348.836 551.374 349.188 551.566 348.882V348.882Z" fill="white" />
        <path d="M559.645 363.258C555.673 363.711 551.684 362.57 548.475 360.065C548.157 359.816 547.808 360.348 548.125 360.597C551.469 363.198 555.622 364.375 559.755 363.895C560.148 363.849 560.036 363.212 559.645 363.258H559.645Z" fill="white" />
        <path d="M537.502 339.123C537.182 339.761 536.714 340.306 536.141 340.71C535.569 341.113 534.908 341.362 534.22 341.435C533.867 341.471 533.968 342.034 534.318 341.998C535.078 341.914 535.807 341.638 536.441 341.194C537.075 340.749 537.595 340.15 537.954 339.449C537.994 339.386 538.008 339.309 537.995 339.235C537.983 339.161 537.943 339.095 537.885 339.05C537.825 339.008 537.751 338.991 537.679 339.005C537.607 339.018 537.544 339.061 537.502 339.123H537.502Z" fill="white" />
        <path d="M329.899 209.355H302.156C301.405 209.354 300.684 209.005 300.153 208.384C299.622 207.764 299.323 206.923 299.322 206.045V161.376C299.323 160.499 299.622 159.658 300.153 159.037C300.684 158.417 301.405 158.068 302.156 158.067H329.899C330.65 158.068 331.37 158.417 331.901 159.037C332.432 159.658 332.731 160.499 332.732 161.376V206.045C332.731 206.923 332.432 207.764 331.901 208.384C331.37 209.005 330.65 209.354 329.899 209.355V209.355Z" fill="#CCCBCB" />
        <path d="M380.491 209.355H352.748C351.997 209.354 351.277 209.005 350.746 208.384C350.214 207.764 349.915 206.923 349.915 206.045V119.008C349.915 118.131 350.214 117.289 350.746 116.669C351.277 116.049 351.997 115.7 352.748 115.699H380.491C381.242 115.7 381.962 116.049 382.494 116.669C383.025 117.289 383.324 118.131 383.324 119.008V206.045C383.324 206.923 383.025 207.764 382.494 208.384C381.962 209.005 381.242 209.354 380.491 209.355Z" fill="#CCCBCB" />
        <path d="M431.083 209.355H403.34C402.589 209.354 401.869 209.005 401.337 208.384C400.806 207.764 400.507 206.923 400.506 206.045V161.376C400.507 160.499 400.806 159.658 401.337 159.037C401.869 158.417 402.589 158.068 403.34 158.067H431.083C431.834 158.068 432.554 158.417 433.085 159.037C433.617 159.658 433.915 160.499 433.916 161.376V206.045C433.915 206.923 433.617 207.764 433.085 208.384C432.554 209.005 431.834 209.354 431.083 209.355Z" fill="#CCCBCB" />
        <path d="M481.675 209.355H453.932C453.198 209.373 452.488 209.051 451.957 208.459C451.425 207.867 451.117 207.053 451.099 206.195V102.134C451.117 101.276 451.425 100.462 451.957 99.8702C452.488 99.278 453.198 98.9558 453.932 98.9743H481.675C482.409 98.9558 483.119 99.278 483.651 99.8702C484.182 100.462 484.49 101.276 484.509 102.134V206.195C484.49 207.053 484.182 207.867 483.651 208.459C483.12 209.051 482.409 209.373 481.675 209.355Z" fill="#CCCBCB" />
        <path d="M532.267 209.355H504.525C503.773 209.354 503.053 209.005 502.522 208.384C501.991 207.764 501.692 206.923 501.691 206.045V72.18C501.692 71.3026 501.991 70.4614 502.522 69.8409C503.053 69.2205 503.773 68.8715 504.525 68.8705H532.267C533.018 68.8715 533.739 69.2205 534.27 69.8409C534.801 70.4614 535.1 71.3026 535.101 72.18V206.045C535.1 206.923 534.801 207.764 534.27 208.384C533.739 209.005 533.018 209.354 532.267 209.355Z" fill="#CCCBCB" />
        <path d="M316.027 144.687C319.19 144.687 321.755 141.692 321.755 137.998C321.755 134.303 319.19 131.308 316.027 131.308C312.864 131.308 310.3 134.303 310.3 137.998C310.3 141.692 312.864 144.687 316.027 144.687Z" fill="#161626" />
        <path d="M366.62 101.204C369.783 101.204 372.347 98.2091 372.347 94.5145C372.347 90.8199 369.783 87.8248 366.62 87.8248C363.456 87.8248 360.892 90.8199 360.892 94.5145C360.892 98.2091 363.456 101.204 366.62 101.204Z" fill="#161626" />
        <path d="M417.211 144.687C420.374 144.687 422.939 141.692 422.939 137.998C422.939 134.303 420.374 131.308 417.211 131.308C414.048 131.308 411.484 134.303 411.484 137.998C411.484 141.692 414.048 144.687 417.211 144.687Z" fill="#161626" />
        <path d="M467.804 80.0201C470.967 80.0201 473.531 77.025 473.531 73.3304C473.531 69.6358 470.967 66.6407 467.804 66.6407C464.64 66.6407 462.076 69.6358 462.076 73.3304C462.076 77.025 464.64 80.0201 467.804 80.0201Z" fill="#161626" />
        <path d="M518.396 55.4911C521.559 55.4911 524.123 52.496 524.123 48.8014C524.123 45.1067 521.559 42.1116 518.396 42.1116C515.233 42.1116 512.668 45.1067 512.668 48.8014C512.668 52.496 515.233 55.4911 518.396 55.4911Z" fill="#161626" />
        <path d="M417.333 139.496L366.619 95.13L316.6 138.89L315.455 137.105L366.619 92.3433L417.091 136.499L467.246 72.3911L467.447 72.2958L518.039 48.4866L518.753 50.5553L468.362 74.2692L417.333 139.496Z" fill="#161626" />
        <path d="M589.166 355.076L580.548 355.075L576.448 316.251L589.167 316.252L589.166 355.076Z" fill="#FFB6B6" />
        <path d="M591.363 364.833L563.577 364.832V364.421C563.577 361.071 564.716 357.858 566.745 355.489C568.773 353.12 571.524 351.789 574.392 351.789H574.393L591.364 351.79L591.363 364.833Z" fill="#161626" />
        <path d="M558.368 190.75L563.26 281.797L579.687 345.885L592.413 346.961L586.023 268.856L588.825 216.986C588.825 216.986 602.108 205.42 594.764 191.499L558.368 190.75Z" fill="#161626" />
        <path d="M594.789 355.076L586.171 355.075L582.072 316.251L594.79 316.252L594.789 355.076Z" fill="#FFB6B6" />
        <path d="M596.987 364.833L569.2 364.832V364.421C569.2 361.071 570.34 357.858 572.368 355.489C574.396 353.12 577.147 351.789 580.016 351.789H580.016L596.987 351.79L596.987 364.833Z" fill="#161626" />
        <path d="M563.992 190.75L568.884 281.797L585.311 345.885L598.037 346.961L591.646 268.856L594.448 216.986C594.448 216.986 607.732 205.42 600.387 191.499L563.992 190.75Z" fill="#161626" />
        <path d="M590.513 204.849C575.838 204.849 558.566 194.374 557.565 193.759L557.287 193.587L590.967 93.2258L607.648 84.0215C608.933 83.3128 610.356 83.0173 611.77 83.1655C613.185 83.3137 614.541 83.9003 615.697 84.8647C616.852 85.829 617.767 87.1362 618.346 88.6514C618.925 90.1665 619.147 91.8346 618.99 93.4836L612.371 162.844L605.461 198.768L605.387 198.852C601.574 203.253 596.24 204.849 590.513 204.849Z" fill="#7C9C3C" />
        <path d="M536.692 138.411C537.565 137.765 538.548 137.35 539.573 137.196C540.598 137.041 541.639 137.151 542.624 137.518C543.608 137.884 544.512 138.499 545.271 139.317C546.031 140.136 546.627 141.139 547.019 142.256L572.1 140.656L565.519 153.822L542.71 153.323C541.06 153.967 539.265 153.882 537.665 153.083C536.066 152.284 534.772 150.828 534.031 148.99C533.289 147.152 533.15 145.06 533.64 143.11C534.131 141.16 535.217 139.488 536.692 138.411V138.411Z" fill="#FFB6B6" />
        <path d="M586.188 159.022L561.053 158.272L561.378 138.853L573.263 134.434L592.758 102.496C593.734 100.897 594.975 99.5427 596.407 98.5132C597.839 97.4838 599.433 96.8001 601.096 96.5028C602.758 96.2054 604.454 96.3003 606.084 96.7819C607.714 97.2635 609.245 98.1219 610.586 99.3066C611.928 100.491 613.052 101.978 613.893 103.679C614.733 105.38 615.274 107.26 615.481 109.209C615.689 111.158 615.56 113.136 615.102 115.026C614.644 116.916 613.867 118.679 612.815 120.212L586.188 159.022Z" fill="#7C9C3C" />
        <path d="M600.741 80.3234C609.965 80.3234 617.443 71.5897 617.443 60.8161C617.443 50.0425 609.965 41.3087 600.741 41.3087C591.517 41.3087 584.04 50.0425 584.04 60.8161C584.04 71.5897 591.517 80.3234 600.741 80.3234Z" fill="#FFB6B6" />
        <path d="M579.612 44.5599C581.297 42.5414 583.488 41.199 585.867 40.7258C588.187 40.1428 590.732 39.9622 592.587 38.2627C594.696 36.3005 595.624 32.5731 598.211 31.7439C599.336 31.4797 600.502 31.5878 601.578 32.0559C605.711 33.5122 609.381 36.3697 612.121 40.266C612.767 41.3825 613.591 42.3441 614.546 43.0985C615.118 43.3813 615.677 43.6991 616.219 44.0509C616.815 44.5998 617.284 45.3139 617.583 46.1281C619.448 50.5257 619.878 55.5662 618.792 60.307C618.145 63.1067 616.978 65.7011 616.29 68.5172C615.601 71.3333 612.415 76.6903 611.67 75.3603C610.925 74.0303 609.969 72.7905 609.561 71.2552C608.766 68.2352 609.484 65.1961 607.461 63.0985C606.21 61.8013 603.946 60.931 603.096 62.6059C602.759 63.2545 602.78 64.0755 602.491 64.7487C601.922 66.0623 600.277 66.3251 599.188 65.5697C598.138 64.7229 597.4 63.4446 597.121 61.9901C595.483 55.5205 592.693 51.4483 586.767 54.2151C584.56 55.2495 581.959 55.9474 579.837 54.174C577.039 51.8423 577.608 47.22 579.612 44.5599Z" fill="#2F2E41" />
        <path d="M542.108 220.028H514.365C513.614 220.027 512.894 219.678 512.363 219.058C511.831 218.437 511.533 217.596 511.532 216.718V82.8533C511.533 81.9758 511.831 81.1346 512.363 80.5141C512.894 79.8937 513.614 79.5447 514.365 79.5438H542.108C542.859 79.5447 543.579 79.8937 544.111 80.5141C544.642 81.1346 544.941 81.9758 544.942 82.8533V216.718C544.941 217.596 544.642 218.437 544.111 219.058C543.579 219.678 542.859 220.027 542.108 220.028V220.028Z" fill="#7C9C3C" fill-opacity="0.7" />
        <path d="M535.989 149.906C536.862 149.259 537.845 148.844 538.87 148.69C539.895 148.536 540.936 148.646 541.921 149.012C542.905 149.379 543.809 149.993 544.568 150.811C545.327 151.63 545.924 152.633 546.315 153.75L571.397 152.15L564.816 165.316L542.007 164.818C540.357 165.461 538.562 165.376 536.962 164.577C535.363 163.778 534.069 162.322 533.327 160.484C532.586 158.646 532.447 156.554 532.937 154.604C533.428 152.654 534.514 150.983 535.989 149.906H535.989Z" fill="#FFB6B6" />
        <path d="M585.485 170.516L560.35 169.767L560.674 150.347L572.56 145.928L592.055 113.991C593.031 112.391 594.272 111.037 595.704 110.007C597.136 108.978 598.73 108.294 600.392 107.997C602.055 107.7 603.751 107.795 605.381 108.276C607.011 108.758 608.542 109.616 609.883 110.801C611.225 111.985 612.349 113.472 613.19 115.173C614.03 116.874 614.571 118.754 614.778 120.703C614.986 122.652 614.857 124.63 614.399 126.52C613.941 128.41 613.164 130.173 612.112 131.706L585.485 170.516Z" fill="#7C9C3C" />
    </g>
    <defs>
        <clipPath id="clip0_157_174">
            <rect width="634" height="388" fill="white" />
        </clipPath>
    </defs>
</svg>
    