<svg id="visual" viewBox="0 0 900 600" width="900" height="600" xmlns="http://www.w3.org/2000/svg" xmlns:xlink="http://www.w3.org/1999/xlink" version="1.1">
    <g transform="translate(-16.17404045823764 566.143215722597)">
        <path d="M157.2 -183.7C215 -138.9 280.8 -100 297.7 -46.3C314.5 7.4 282.4 76 246 144.9C209.6 213.8 168.9 283.1 106.2 316.8C43.4 350.5 -41.4 348.6 -114.6 319.8C-187.8 291 -249.3 235.2 -265.4 170.9C-281.5 106.6 -252 33.7 -220.3 -20.2C-188.6 -74 -154.5 -108.8 -117.4 -157.3C-80.4 -205.8 -40.2 -267.9 4.8 -273.6C49.7 -279.2 99.4 -228.5 157.2 -183.7" fill="#7C9C3C"></path>
    </g>
</svg>