<?xml version="1.0" encoding="utf-8"?>
<!-- Generator: Adobe Illustrator 24.3.0, SVG Export Plug-In . SVG Version: 6.00 Build 0)  -->
<svg version="1.1" id="Layer_1" xmlns="http://www.w3.org/2000/svg" xmlns:xlink="http://www.w3.org/1999/xlink" x="0px" y="0px"
	 viewBox="0 0 1261.6 673.8" style="enable-background:new 0 0 1261.6 673.8;" xml:space="preserve">
<style type="text/css">
	.st0{fill:#799B3D;}
	.st1{fill:#111224;}
	.st2{fill:#FFFFFF;}
	.st3{fill:#1E233F;}
	.st4{enable-background:new    ;}
</style>
<path class="st0" d="M657.1,356.6l-0.3,0.1L657.1,356.6z"/>
<path class="st0" d="M710.3,267.6c-17.4,0-34.5,4.6-49.5,13.3c-30-45.7-91.3-58.4-136.9-28.4c-2.6,1.7-5.1,3.5-7.5,5.4
	c7.8,57.5,56.5,100.6,114.5,101.4c-24.8-41.3-69-65.7-69-65.7c61.3,23.7,76.9,65,77.1,65.6c5.8-0.3,11.6-1,17.3-2.2
	c-25.3-64.8-99.7-91.5-99.7-91.5c45.9,9,75.3,36.4,91.8,58.4c6.5-11.1,29.4-40.6,71.1-44.6c0,0-47.3,11.9-67.2,50.1
	c1.7,2.4,3.2,4.8,4.5,7c5.7-7.9,20.2-23.5,49.5-31.6c0,0-28.6,12.4-46.8,36.2c4.5,8,6.3,13.4,5.9,13.7c38.8-11.3,69-41.8,80-80.6
	C734.1,269.7,722.2,267.5,710.3,267.6z"/>
<polygon class="st1" points="651.8,195.5 736.8,170.9 716.8,159.4 631.8,184 "/>
<path class="st2" d="M651.2,193.1c-0.1,0-0.1-0.1-0.1-0.1c0-0.1,0.1-0.1,0.1-0.1l81.3-23.6c0.1,0,0.1,0,0.2,0.1c0,0.1,0,0.1-0.1,0.1
	c0,0,0,0,0,0L651.2,193.1L651.2,193.1z"/>
<path class="st2" d="M647,191.3c-0.1,0-0.1,0-0.1-0.1c0-0.1,0-0.1,0-0.2c0,0,0.1,0,0.1,0l81.3-23.5c0.1,0,0.1,0,0.2,0.1
	c0,0.1,0,0.1-0.1,0.1c0,0,0,0,0,0L647,191.3L647,191.3z"/>
<path class="st2" d="M643.5,189.1c-0.1,0-0.1,0-0.1-0.1c0-0.1,0-0.1,0.1-0.1c0,0,0,0,0,0l81.3-23.5c0.1,0,0.1,0,0.1,0.1c0,0,0,0,0,0
	c0,0.1,0,0.1-0.1,0.2c0,0,0,0,0,0L643.5,189.1L643.5,189.1z"/>
<path class="st2" d="M640.3,187.1c-0.1,0-0.1,0-0.1-0.1c0-0.1,0-0.1,0.1-0.1c0,0,0,0,0,0l81.3-23.5c0.1,0,0.1,0,0.2,0.1
	c0,0.1,0,0.1-0.1,0.2L640.3,187.1L640.3,187.1z"/>
<path class="st2" d="M637.1,185.3c-0.1,0-0.1,0-0.1-0.1c0-0.1,0-0.1,0.1-0.1c0,0,0,0,0,0l81.3-23.6c0.1,0,0.1,0,0.2,0.1
	c0,0.1,0,0.1-0.1,0.1c0,0,0,0,0,0L637.1,185.3L637.1,185.3z"/>
<path class="st2" d="M731.1,172C731.1,172,731.1,172,731.1,172l-18.8-10.8c-0.1,0-0.1-0.1,0-0.2c0,0,0.1,0,0.1,0l18.7,10.8
	c0.1,0,0.1,0.1,0,0.2C731.2,172,731.2,172,731.1,172z"/>
<path class="st2" d="M726.5,173.4L726.5,173.4l-18.8-10.8c-0.1,0-0.1-0.1,0-0.2c0-0.1,0.1-0.1,0.2,0l18.7,10.8
	C726.6,173.2,726.6,173.3,726.5,173.4C726.5,173.3,726.5,173.3,726.5,173.4C726.5,173.4,726.5,173.4,726.5,173.4z"/>
<path class="st2" d="M721.5,174.7L721.5,174.7l-18.8-10.8c-0.1,0-0.1-0.1,0-0.2c0,0,0.1,0,0.1,0l18.7,10.8
	C721.6,174.5,721.6,174.6,721.5,174.7C721.6,174.7,721.5,174.7,721.5,174.7z"/>
<path class="st2" d="M717.5,175.8L717.5,175.8L698.7,165c-0.1,0-0.1-0.1,0-0.2c0,0,0.1,0,0.1,0l18.7,10.8c0.1,0,0.1,0.1,0,0.2
	C717.6,175.8,717.5,175.8,717.5,175.8z"/>
<path class="st2" d="M712.8,177.2L712.8,177.2L694,166.4c0,0,0-0.1,0-0.2c0.1,0,0.1,0,0.2,0l18.7,10.8
	C712.9,177,712.9,177.1,712.8,177.2C712.9,177.2,712.9,177.2,712.8,177.2C712.9,177.2,712.8,177.2,712.8,177.2z"/>
<path class="st2" d="M707.9,178.5L707.9,178.5l-18.8-10.8c0,0,0-0.1,0-0.2c0,0,0.1,0,0.2,0l18.7,10.8
	C708,178.4,708,178.5,707.9,178.5C707.9,178.5,707.9,178.5,707.9,178.5z"/>
<path class="st2" d="M703.7,179.8C703.7,179.8,703.7,179.8,703.7,179.8L684.9,169c-0.1,0-0.1-0.1-0.1-0.2c0-0.1,0.1-0.1,0.2-0.1
	c0,0,0,0,0.1,0l18.7,10.8C703.8,179.6,703.8,179.7,703.7,179.8C703.8,179.7,703.8,179.7,703.7,179.8
	C703.8,179.7,703.7,179.8,703.7,179.8z"/>
<path class="st2" d="M699.1,181.2L699.1,181.2l-18.8-10.8c0,0,0-0.1,0-0.2c0.1,0,0.1,0,0.2,0l18.7,10.8c0,0,0,0.1,0,0.2c0,0,0,0,0,0
	C699.1,181.2,699.1,181.2,699.1,181.2z"/>
<path class="st2" d="M694.1,182.5L694.1,182.5l-18.8-10.8c-0.1,0-0.1-0.1,0-0.2c0-0.1,0.1-0.1,0.2-0.1l18.7,10.8
	c0.1,0,0.1,0.1,0,0.2C694.2,182.5,694.2,182.5,694.1,182.5z"/>
<path class="st2" d="M689.6,184.1L689.6,184.1l-18.8-10.8c0,0,0-0.1,0-0.2c0,0,0.1,0,0.2,0c0,0,0,0,0,0l18.7,10.8c0,0,0,0.1,0,0.2
	c0,0,0,0,0,0C689.7,184.1,689.6,184.1,689.6,184.1z"/>
<path class="st2" d="M684.6,185.4L684.6,185.4l-18.8-10.8c-0.1,0-0.1-0.1,0-0.2c0,0,0.1,0,0.1,0l18.7,10.8
	C684.7,185.3,684.7,185.3,684.6,185.4C684.7,185.4,684.7,185.4,684.6,185.4z"/>
<path class="st2" d="M680.5,186.7L680.5,186.7l-18.8-10.8c0,0,0-0.1,0-0.2c0-0.1,0.1-0.1,0.2-0.1c0,0,0,0,0,0l18.7,10.8
	c0,0,0,0.1,0,0.2C680.6,186.7,680.5,186.7,680.5,186.7z"/>
<path class="st2" d="M675.8,188.1L675.8,188.1L657,177.3c0,0,0-0.1,0-0.2c0,0,0,0,0,0c0,0,0.1,0,0.2,0l18.7,10.8
	C675.9,188,675.9,188,675.8,188.1C675.9,188.1,675.9,188.1,675.8,188.1C675.9,188.1,675.8,188.1,675.8,188.1z"/>
<path class="st2" d="M670.8,189.7L670.8,189.7L652,178.9c0,0,0-0.1,0-0.2c0,0,0,0,0,0c0,0,0.1,0,0.2,0l18.7,10.8
	C670.9,189.6,670.9,189.7,670.8,189.7C670.9,189.7,670.9,189.7,670.8,189.7C670.9,189.7,670.9,189.7,670.8,189.7z"/>
<path class="st2" d="M666.2,191.1L666.2,191.1l-18.8-10.8c-0.1,0-0.1-0.1,0-0.2c0-0.1,0.1-0.1,0.2,0l18.7,10.8
	C666.3,191,666.3,191,666.2,191.1C666.2,191.1,666.2,191.1,666.2,191.1z"/>
<ellipse transform="matrix(0.7746 -0.6324 0.6324 0.7746 13.0663 465.5771)" class="st1" cx="659.7" cy="214.5" rx="19.9" ry="17"/>
<ellipse transform="matrix(0.7746 -0.6324 0.6324 0.7746 13.152 465.2144)" class="st1" cx="659.3" cy="214.2" rx="19.9" ry="17"/>
<ellipse transform="matrix(0.774 -0.6332 0.6332 0.774 12.2989 463.4089)" class="st1" cx="655.2" cy="214.5" rx="19.8" ry="16.9"/>
<ellipse transform="matrix(0.7746 -0.6324 0.6324 0.7746 13.3197 464.4918)" class="st1" cx="658.3" cy="213.6" rx="19.9" ry="17"/>
<ellipse transform="matrix(0.7746 -0.6324 0.6324 0.7746 13.4018 464.132)" class="st1" cx="657.9" cy="213.3" rx="19.9" ry="17"/>
<ellipse transform="matrix(0.7746 -0.6324 0.6324 0.7746 13.4874 463.7693)" class="st1" cx="657.4" cy="213" rx="19.9" ry="17"/>
<ellipse transform="matrix(0.7746 -0.6324 0.6324 0.7746 13.5759 463.4072)" class="st1" cx="656.9" cy="212.7" rx="19.9" ry="17"/>
<ellipse transform="matrix(0.7746 -0.6324 0.6324 0.7746 13.6615 463.0445)" class="st1" cx="656.5" cy="212.4" rx="19.9" ry="17"/>
<ellipse transform="matrix(0.7746 -0.6324 0.6324 0.7746 13.7414 462.6783)" class="st1" cx="656" cy="212.1" rx="19.9" ry="17"/>
<ellipse transform="matrix(0.7746 -0.6324 0.6324 0.7746 13.8292 462.322)" class="st1" cx="655.6" cy="211.8" rx="19.9" ry="17"/>
<ellipse transform="matrix(0.7746 -0.6324 0.6324 0.7746 13.9091 461.9558)" class="st1" cx="655.1" cy="211.5" rx="19.9" ry="17"/>
<ellipse transform="matrix(0.7746 -0.6324 0.6324 0.7746 13.997 461.5994)" class="st1" cx="654.6" cy="211.2" rx="19.9" ry="17"/>
<ellipse transform="matrix(0.7746 -0.6324 0.6324 0.7746 14.0831 461.231)" class="st1" cx="654.1" cy="210.9" rx="19.9" ry="17"/>
<ellipse transform="matrix(0.7746 -0.6324 0.6324 0.7746 14.171 460.8746)" class="st1" cx="653.7" cy="210.6" rx="19.9" ry="17"/>
<ellipse transform="matrix(0.7746 -0.6324 0.6324 0.7746 14.2509 460.5085)" class="st1" cx="653.2" cy="210.3" rx="19.9" ry="17"/>
<ellipse transform="matrix(0.7746 -0.6324 0.6324 0.7746 14.3388 460.1521)" class="st1" cx="652.8" cy="210" rx="19.9" ry="17"/>
<ellipse transform="matrix(0.7746 -0.6324 0.6324 0.7746 14.4186 459.7859)" class="st1" cx="652.3" cy="209.7" rx="19.9" ry="17"/>
<ellipse transform="matrix(0.7746 -0.6324 0.6324 0.7746 14.5065 459.4296)" class="st1" cx="651.8" cy="209.4" rx="19.9" ry="17"/>
<ellipse transform="matrix(0.7746 -0.6324 0.6324 0.7746 14.5927 459.0611)" class="st1" cx="651.4" cy="209.1" rx="19.9" ry="17"/>
<ellipse transform="matrix(0.7746 -0.6324 0.6324 0.7746 14.6805 458.7048)" class="st1" cx="650.9" cy="208.8" rx="19.9" ry="17"/>
<ellipse transform="matrix(0.7746 -0.6324 0.6324 0.7746 14.7604 458.3386)" class="st1" cx="650.4" cy="208.5" rx="19.9" ry="17"/>
<ellipse transform="matrix(0.7746 -0.6324 0.6324 0.7746 14.8483 457.9822)" class="st1" cx="650" cy="208.2" rx="19.9" ry="17"/>
<ellipse transform="matrix(0.7746 -0.6324 0.6324 0.7746 14.9282 457.6161)" class="st1" cx="649.5" cy="207.9" rx="19.9" ry="17"/>
<ellipse transform="matrix(0.7746 -0.6324 0.6324 0.7746 15.016 457.2597)" class="st1" cx="649" cy="207.6" rx="19.9" ry="17"/>
<ellipse transform="matrix(0.7746 -0.6324 0.6324 0.7746 15.1022 456.8913)" class="st1" cx="648.6" cy="207.3" rx="19.9" ry="17"/>
<ellipse transform="matrix(0.7746 -0.6324 0.6324 0.7746 15.1901 456.5349)" class="st1" cx="648.1" cy="207" rx="19.9" ry="17"/>
<ellipse transform="matrix(0.7746 -0.6324 0.6324 0.7746 15.27 456.1687)" class="st1" cx="647.6" cy="206.7" rx="19.9" ry="17"/>
<ellipse transform="matrix(0.7746 -0.6324 0.6324 0.7746 15.3578 455.8124)" class="st1" cx="647.2" cy="206.4" rx="19.9" ry="17"/>
<ellipse transform="matrix(0.7746 -0.6324 0.6324 0.7746 15.4377 455.4462)" class="st1" cx="646.7" cy="206.1" rx="19.9" ry="17"/>
<ellipse transform="matrix(0.7746 -0.6324 0.6324 0.7746 15.5256 455.0898)" class="st1" cx="646.3" cy="205.8" rx="19.9" ry="17"/>
<ellipse transform="matrix(0.7746 -0.6324 0.6324 0.7746 15.6118 454.7214)" class="st1" cx="645.8" cy="205.5" rx="19.9" ry="17"/>
<ellipse transform="matrix(0.7746 -0.6324 0.6324 0.7746 15.6996 454.3651)" class="st1" cx="645.3" cy="205.2" rx="19.9" ry="17"/>
<ellipse transform="matrix(0.7746 -0.6324 0.6324 0.7746 15.7795 453.9989)" class="st1" cx="644.9" cy="204.9" rx="19.9" ry="17"/>
<ellipse transform="matrix(0.7746 -0.6324 0.6324 0.7746 15.8674 453.6425)" class="st1" cx="644.4" cy="204.6" rx="19.9" ry="17"/>
<ellipse transform="matrix(0.7746 -0.6324 0.6324 0.7746 15.9472 453.2763)" class="st1" cx="643.9" cy="204.3" rx="19.9" ry="17"/>
<ellipse transform="matrix(0.7746 -0.6324 0.6324 0.7746 16.0351 452.92)" class="st1" cx="643.5" cy="204" rx="19.9" ry="17"/>
<ellipse transform="matrix(0.7746 -0.6324 0.6324 0.7746 16.1213 452.5515)" class="st1" cx="643" cy="203.7" rx="19.9" ry="17"/>
<ellipse transform="matrix(0.7746 -0.6324 0.6324 0.7746 16.2092 452.1952)" class="st1" cx="642.5" cy="203.4" rx="19.9" ry="17"/>
<ellipse transform="matrix(0.7746 -0.6324 0.6324 0.7746 16.289 451.829)" class="st1" cx="642.1" cy="203.1" rx="19.9" ry="17"/>
<ellipse transform="matrix(0.7746 -0.6324 0.6324 0.7746 16.3769 451.4726)" class="st1" cx="641.6" cy="202.8" rx="19.9" ry="17"/>
<ellipse transform="matrix(0.7746 -0.6324 0.6324 0.7746 16.4568 451.1065)" class="st1" cx="641.1" cy="202.5" rx="19.9" ry="17"/>
<ellipse transform="matrix(0.7746 -0.6324 0.6324 0.7746 16.5424 450.7438)" class="st1" cx="640.7" cy="202.2" rx="19.9" ry="17"/>
<ellipse transform="matrix(0.7746 -0.6324 0.6324 0.7746 16.6308 450.3817)" class="st1" cx="640.2" cy="201.9" rx="19.9" ry="17"/>
<ellipse transform="matrix(0.7746 -0.6324 0.6324 0.7746 16.7164 450.019)" class="st1" cx="639.7" cy="201.6" rx="19.9" ry="17"/>
<ellipse transform="matrix(0.7746 -0.6324 0.6324 0.7746 16.7986 449.6591)" class="st1" cx="639.3" cy="201.3" rx="19.9" ry="17"/>
<ellipse transform="matrix(0.7746 -0.6324 0.6324 0.7746 16.8842 449.2964)" class="st1" cx="638.8" cy="201" rx="19.9" ry="17"/>
<ellipse transform="matrix(0.7746 -0.6324 0.6324 0.7746 16.9663 448.9366)" class="st1" cx="638.3" cy="200.7" rx="19.9" ry="17"/>
<ellipse transform="matrix(0.7746 -0.6324 0.6324 0.7746 17.0519 448.5739)" class="st1" cx="637.9" cy="200.4" rx="19.9" ry="17"/>
<ellipse transform="matrix(0.7746 -0.6324 0.6324 0.7746 17.1403 448.2118)" class="st1" cx="637.4" cy="200.1" rx="19.9" ry="17"/>
<ellipse transform="matrix(0.7746 -0.6324 0.6324 0.7746 17.226 447.8491)" class="st1" cx="636.9" cy="199.8" rx="19.9" ry="17"/>
<ellipse transform="matrix(0.7746 -0.6324 0.6324 0.7746 17.3081 447.4893)" class="st1" cx="636.5" cy="199.5" rx="19.9" ry="17"/>
<ellipse transform="matrix(0.7746 -0.6324 0.6324 0.7746 17.3937 447.1266)" class="st1" cx="636" cy="199.2" rx="19.9" ry="17"/>
<ellipse transform="matrix(0.7746 -0.6324 0.6324 0.7746 17.4758 446.7668)" class="st1" cx="635.6" cy="198.9" rx="19.9" ry="17"/>
<ellipse transform="matrix(0.7746 -0.6324 0.6324 0.7746 17.5614 446.4041)" class="st1" cx="635.1" cy="198.6" rx="19.9" ry="17"/>
<ellipse transform="matrix(0.7746 -0.6324 0.6324 0.7746 17.6499 446.042)" class="st1" cx="634.6" cy="198.3" rx="19.9" ry="17"/>
<ellipse transform="matrix(0.7746 -0.6324 0.6324 0.7746 17.7355 445.6793)" class="st1" cx="634.2" cy="198" rx="19.9" ry="17"/>
<ellipse transform="matrix(0.7746 -0.6324 0.6324 0.7746 17.8176 445.3194)" class="st1" cx="633.7" cy="197.7" rx="19.9" ry="17"/>
<ellipse transform="matrix(0.7746 -0.6324 0.6324 0.7746 17.9032 444.9567)" class="st1" cx="633.2" cy="197.4" rx="19.9" ry="17"/>
<ellipse transform="matrix(0.774 -0.6332 0.6332 0.774 17.0741 443.2245)" class="st1" cx="629.4" cy="197.7" rx="19.8" ry="16.9"/>
<ellipse transform="matrix(0.7746 -0.6324 0.6324 0.7746 18.0675 444.2399)" class="st1" cx="632.3" cy="196.8" rx="19.9" ry="17"/>
<ellipse transform="matrix(0.7746 -0.6324 0.6324 0.7746 18.156 443.8778)" class="st1" cx="631.8" cy="196.5" rx="19.9" ry="17"/>
<ellipse transform="matrix(0.7746 -0.6324 0.6324 0.7746 18.2416 443.5151)" class="st1" cx="631.4" cy="196.2" rx="19.9" ry="17"/>
<ellipse transform="matrix(0.7746 -0.6324 0.6324 0.7746 18.3237 443.1553)" class="st1" cx="630.9" cy="195.9" rx="19.9" ry="17"/>
<ellipse transform="matrix(0.7746 -0.6324 0.6324 0.7746 18.4093 442.7926)" class="st1" cx="630.4" cy="195.6" rx="19.9" ry="17"/>
<ellipse transform="matrix(0.7746 -0.6324 0.6324 0.7746 18.4914 442.4327)" class="st1" cx="630" cy="195.3" rx="19.9" ry="17"/>
<ellipse transform="matrix(0.7746 -0.6324 0.6324 0.7746 18.5771 442.0701)" class="st1" cx="629.5" cy="195" rx="19.9" ry="17"/>
<ellipse transform="matrix(0.7746 -0.6324 0.6324 0.7746 18.6655 441.708)" class="st1" cx="629" cy="194.7" rx="19.9" ry="17"/>
<ellipse transform="matrix(0.7746 -0.6324 0.6324 0.7746 18.7511 441.3453)" class="st1" cx="628.6" cy="194.4" rx="19.9" ry="17"/>
<ellipse transform="matrix(0.7746 -0.6324 0.6324 0.7746 18.8332 440.9854)" class="st1" cx="628.1" cy="194.1" rx="19.9" ry="17"/>
<ellipse transform="matrix(0.7746 -0.6324 0.6324 0.7746 18.9188 440.6227)" class="st1" cx="627.7" cy="193.8" rx="19.9" ry="17"/>
<ellipse transform="matrix(0.7746 -0.6324 0.6324 0.7746 19.001 440.2629)" class="st1" cx="627.2" cy="193.5" rx="19.9" ry="17"/>
<ellipse transform="matrix(0.774 -0.6332 0.6332 0.774 18.1808 438.5448)" class="st1" cx="623.4" cy="193.8" rx="19.8" ry="16.9"/>
<ellipse transform="matrix(0.7746 -0.6324 0.6324 0.7746 19.1728 439.5318)" class="st1" cx="626.2" cy="192.9" rx="19.9" ry="17"/>
<ellipse transform="matrix(0.7746 -0.6324 0.6324 0.7746 19.2606 439.1754)" class="st1" cx="625.8" cy="192.6" rx="19.9" ry="17"/>
<ellipse transform="matrix(0.7746 -0.6324 0.6324 0.7746 19.3405 438.8092)" class="st1" cx="625.3" cy="192.3" rx="19.9" ry="17"/>
<ellipse transform="matrix(0.7746 -0.6324 0.6324 0.7746 19.4284 438.4529)" class="st1" cx="624.9" cy="192" rx="19.9" ry="17"/>
<ellipse transform="matrix(0.7746 -0.6324 0.6324 0.7746 19.5083 438.0867)" class="st1" cx="624.4" cy="191.7" rx="19.9" ry="17"/>
<ellipse transform="matrix(0.7746 -0.6324 0.6324 0.7746 19.5961 437.7303)" class="st1" cx="623.9" cy="191.4" rx="19.9" ry="17"/>
<ellipse transform="matrix(0.7746 -0.6324 0.6324 0.7746 19.676 437.3642)" class="st1" cx="623.5" cy="191.1" rx="19.9" ry="17"/>
<ellipse transform="matrix(0.7746 -0.6324 0.6324 0.7746 19.7702 437.0056)" class="st1" cx="623" cy="190.8" rx="19.9" ry="17"/>
<ellipse transform="matrix(0.7746 -0.6324 0.6324 0.7746 19.85 436.6394)" class="st1" cx="622.5" cy="190.5" rx="19.9" ry="17"/>
<ellipse transform="matrix(0.7746 -0.6324 0.6324 0.7746 19.9379 436.283)" class="st1" cx="622.1" cy="190.2" rx="19.9" ry="17"/>
<ellipse transform="matrix(0.7746 -0.6324 0.6324 0.7746 20.0178 435.9168)" class="st1" cx="621.6" cy="189.9" rx="19.9" ry="17"/>
<ellipse transform="matrix(0.7746 -0.6324 0.6324 0.7746 20.1057 435.5605)" class="st1" cx="621.1" cy="189.6" rx="19.9" ry="17"/>
<ellipse transform="matrix(0.7746 -0.6324 0.6324 0.7746 20.1855 435.1943)" class="st1" cx="620.7" cy="189.3" rx="19.9" ry="17"/>
<ellipse transform="matrix(0.7746 -0.6324 0.6324 0.7746 20.2797 434.8357)" class="st1" cx="620.2" cy="189" rx="19.9" ry="17"/>
<ellipse transform="matrix(0.7746 -0.6324 0.6324 0.7746 20.3596 434.4695)" class="st1" cx="619.7" cy="188.7" rx="19.9" ry="17"/>
<ellipse transform="matrix(0.7746 -0.6324 0.6324 0.7746 20.4474 434.1131)" class="st1" cx="619.3" cy="188.4" rx="19.9" ry="17"/>
<ellipse transform="matrix(0.7746 -0.6324 0.6324 0.7746 20.5273 433.747)" class="st1" cx="618.8" cy="188.1" rx="19.9" ry="17"/>
<ellipse transform="matrix(0.7746 -0.6324 0.6324 0.7746 20.6152 433.3906)" class="st1" cx="618.4" cy="187.8" rx="19.9" ry="17"/>
<ellipse transform="matrix(0.7746 -0.6324 0.6324 0.7746 20.6951 433.0244)" class="st1" cx="617.9" cy="187.5" rx="19.9" ry="17"/>
<ellipse transform="matrix(0.7746 -0.6324 0.6324 0.7746 20.7893 432.6658)" class="st1" cx="617.4" cy="187.2" rx="19.9" ry="17"/>
<ellipse transform="matrix(0.7746 -0.6324 0.6324 0.7746 20.8691 432.2997)" class="st1" cx="617" cy="186.9" rx="19.9" ry="17"/>
<ellipse transform="matrix(0.7746 -0.6324 0.6324 0.7746 20.957 431.9433)" class="st1" cx="616.5" cy="186.6" rx="19.9" ry="17"/>
<ellipse transform="matrix(0.7746 -0.6324 0.6324 0.7746 21.0369 431.5771)" class="st1" cx="616" cy="186.3" rx="19.9" ry="17"/>
<ellipse transform="matrix(0.7746 -0.6324 0.6324 0.7746 21.1247 431.2207)" class="st1" cx="615.6" cy="186" rx="19.9" ry="17"/>
<ellipse transform="matrix(0.7746 -0.6324 0.6324 0.7746 21.2046 430.8546)" class="st1" cx="615.1" cy="185.7" rx="19.9" ry="17"/>
<ellipse transform="matrix(0.7746 -0.6324 0.6324 0.7746 21.2988 430.496)" class="st1" cx="614.6" cy="185.4" rx="19.9" ry="17"/>
<ellipse transform="matrix(0.7746 -0.6324 0.6324 0.7746 21.3787 430.1298)" class="st1" cx="614.2" cy="185.1" rx="19.9" ry="17"/>
<ellipse transform="matrix(0.7746 -0.6324 0.6324 0.7746 21.4665 429.7734)" class="st1" cx="613.7" cy="184.8" rx="19.9" ry="17"/>
<ellipse transform="matrix(0.7746 -0.6324 0.6324 0.7746 21.5464 429.4073)" class="st1" cx="613.2" cy="184.5" rx="19.9" ry="17"/>
<ellipse transform="matrix(0.7746 -0.6324 0.6324 0.7746 21.6343 429.0509)" class="st1" cx="612.8" cy="184.2" rx="19.9" ry="17"/>
<ellipse transform="matrix(0.7746 -0.6324 0.6324 0.7746 7.4711 480.1868)" class="st1" cx="677.4" cy="229.6" rx="29.1" ry="24.8"/>
<path class="st2" d="M673.2,257.2c-0.6,0-1.2,0-1.7,0c-7-0.3-13.6-3.6-17.9-9.2c-4.2-5.6-5.6-12.8-4-20.2l0,0
	c3.3-15.1,18.5-26.6,33.7-25.7c7,0.3,13.6,3.6,17.9,9.2c4.2,5.6,5.6,12.8,4,20.2C702,246,687.9,257.2,673.2,257.2z M681.6,204
	c-13.7,0-27,10.5-30,24.2l0,0c-1.5,6.9-0.2,13.4,3.6,18.6c3.9,5.1,10,8.2,16.4,8.4c14.3,0.9,28.5-9.9,31.7-24.1
	c1.5-6.9,0.3-13.5-3.6-18.6c-3.9-5.1-10-8.2-16.4-8.4C682.7,204.1,682.2,204,681.6,204L681.6,204z"/>
<path class="st3" d="M647.2,229.7c-0.2,0-0.4-0.1-0.4-0.3c-1.8-3.8-2.3-8-1.3-12.1c2.4-11,13.5-19.4,24.5-18.7
	c0.5,0,0.9,0.1,1.3,0.1c0.3,0,0.5,0.3,0.4,0.6s-0.3,0.5-0.6,0.4c-0.4-0.1-0.8-0.1-1.3-0.1c-10.6-0.6-21.2,7.4-23.5,17.9
	c-0.9,3.8-0.5,7.9,1.2,11.4c0.1,0.2,0,0.5-0.2,0.7C647.3,229.7,647.2,229.7,647.2,229.7z"/>
<path class="st3" d="M600.1,198.1c-0.2,0-0.4-0.1-0.5-0.3c-1.7-3.6-2.2-7.7-1.2-11.6c2.3-10.6,13-18.7,23.7-18
	c0.4,0,0.8,0.1,1.3,0.1c0.3,0,0.5,0.3,0.4,0.5c0,0,0,0,0,0c0,0.3-0.3,0.5-0.6,0.4c-0.4-0.1-0.8-0.1-1.2-0.1
	c-10.2-0.6-20.4,7.1-22.6,17.2c-0.9,3.7-0.5,7.6,1.2,11c0.1,0.2,0,0.5-0.2,0.7c0,0,0,0,0,0C600.2,198.1,600.1,198.1,600.1,198.1z"/>
<polygon class="st1" points="544.8,230.9 629.8,206.3 609.7,194.8 524.8,219.4 "/>
<path class="st2" d="M544.2,228.5c-0.1,0-0.1,0-0.1-0.1c0-0.1,0-0.1,0.1-0.1c0,0,0,0,0,0l81.3-23.5c0.1,0,0.1,0,0.2,0.1c0,0,0,0,0,0
	c0,0.1,0,0.1-0.1,0.2L544.2,228.5L544.2,228.5z"/>
<path class="st2" d="M540,226.7c-0.1,0-0.1,0-0.1-0.1c0-0.1,0-0.1,0.1-0.1c0,0,0,0,0,0l81.3-23.6c0.1,0,0.1,0,0.2,0.1
	c0,0.1,0,0.1-0.1,0.1c0,0,0,0,0,0L540,226.7z"/>
<path class="st2" d="M536.5,224.6c-0.1,0-0.1,0-0.1-0.1c0-0.1,0-0.1,0.1-0.1c0,0,0,0,0,0l81.3-23.5c0.1,0,0.1,0,0.1,0.1c0,0,0,0,0,0
	c0,0.1,0,0.1-0.1,0.2c0,0,0,0,0,0L536.5,224.6L536.5,224.6z"/>
<path class="st2" d="M533.3,222.6c-0.1,0-0.1,0-0.1-0.1c0-0.1,0-0.1,0.1-0.2l81.3-23.5c0.1,0,0.1,0,0.1,0.1c0,0,0,0,0,0
	c0,0.1,0,0.1-0.1,0.2L533.3,222.6L533.3,222.6z"/>
<path class="st2" d="M530.1,220.7c-0.1,0-0.1,0-0.1-0.1c0-0.1,0-0.1,0.1-0.1c0,0,0,0,0,0l81.3-23.5c0.1,0,0.1,0,0.2,0.1c0,0,0,0,0,0
	c0,0.1,0,0.1-0.1,0.2L530.1,220.7L530.1,220.7z"/>
<path class="st2" d="M624.1,207.4L624.1,207.4l-18.8-10.8c0,0,0-0.1,0-0.2c0-0.1,0.1-0.1,0.2-0.1l18.7,10.8c0,0,0,0.1,0,0.2
	C624.2,207.3,624.2,207.3,624.1,207.4C624.2,207.4,624.1,207.4,624.1,207.4z"/>
<path class="st2" d="M619.4,208.8L619.4,208.8L600.6,198c-0.1,0-0.1-0.1,0-0.2c0-0.1,0.1-0.1,0.2,0l0,0l18.7,10.8
	C619.5,208.6,619.5,208.7,619.4,208.8C619.5,208.7,619.5,208.7,619.4,208.8C619.5,208.8,619.5,208.8,619.4,208.8z"/>
<path class="st2" d="M614.5,210.1L614.5,210.1l-18.8-10.8c-0.1,0-0.1-0.1,0-0.2c0-0.1,0.1-0.1,0.2-0.1l18.7,10.8
	c0.1,0,0.1,0.1,0,0.2C614.6,210.1,614.5,210.1,614.5,210.1z"/>
<path class="st2" d="M610.5,211.2L610.5,211.2l-18.8-10.8c0,0,0-0.1,0-0.2c0-0.1,0.1-0.1,0.2-0.1l18.7,10.8
	C610.6,211,610.6,211.1,610.5,211.2C610.5,211.2,610.5,211.2,610.5,211.2C610.5,211.2,610.5,211.2,610.5,211.2z"/>
<path class="st2" d="M605.8,212.6L605.8,212.6L587,201.8c0,0,0-0.1,0-0.2c0.1,0,0.1,0,0.2,0l18.7,10.8
	C606,212.5,606,212.5,605.8,212.6C605.9,212.6,605.8,212.6,605.8,212.6z"/>
<path class="st2" d="M600.9,213.9L600.9,213.9l-18.8-10.8c-0.1,0-0.1-0.1,0-0.2c0,0,0.1,0,0.1,0l18.7,10.8c0.1,0,0.1,0.1,0,0.2
	C600.9,213.9,600.9,213.9,600.9,213.9z"/>
<path class="st2" d="M596.7,215.2L596.7,215.2l-18.8-10.8c0,0,0-0.1,0-0.2c0,0,0.1,0,0.2,0l18.7,10.8
	C596.8,215,596.8,215.1,596.7,215.2C596.8,215.2,596.8,215.2,596.7,215.2C596.7,215.2,596.7,215.2,596.7,215.2z"/>
<path class="st2" d="M592,216.6L592,216.6l-18.8-10.8c-0.1,0-0.1-0.1,0-0.2c0-0.1,0.1-0.1,0.2,0l0,0l18.7,10.8c0,0,0,0.1,0,0.2
	C592.1,216.5,592.1,216.5,592,216.6C592.1,216.6,592,216.6,592,216.6z"/>
<path class="st2" d="M587.1,217.9L587.1,217.9l-18.8-10.8c0,0,0-0.1,0-0.2c0-0.1,0.1-0.1,0.2-0.1l18.7,10.8c0.1,0,0.1,0.1,0,0.2
	C587.2,217.9,587.2,217.9,587.1,217.9z"/>
<path class="st2" d="M582.6,219.5L582.6,219.5l-18.8-10.8c-0.1,0-0.1-0.1,0-0.2c0-0.1,0.1-0.1,0.2,0l18.7,10.8
	C582.7,219.3,582.7,219.4,582.6,219.5C582.6,219.5,582.6,219.5,582.6,219.5C582.6,219.5,582.6,219.5,582.6,219.5z"/>
<path class="st2" d="M577.6,220.9L577.6,220.9l-18.8-10.8c-0.1,0-0.1-0.1,0-0.2c0-0.1,0.1-0.1,0.2-0.1l18.7,10.8
	c0.1,0,0.1,0.1,0,0.2C577.7,220.8,577.7,220.9,577.6,220.9z"/>
<path class="st2" d="M573.4,222.1C573.4,222.1,573.4,222.1,573.4,222.1l-18.8-10.8c0,0,0-0.1,0-0.2c0-0.1,0.1-0.1,0.2-0.1
	c0,0,0,0,0,0l18.7,10.8c0,0,0,0.1,0,0.2c0,0,0,0,0,0C573.5,222.1,573.5,222.1,573.4,222.1z"/>
<path class="st2" d="M568.8,223.5L568.8,223.5L550,212.7c0,0,0-0.1,0-0.2c0,0,0,0,0,0c0-0.1,0.1-0.1,0.2-0.1l18.7,10.8
	C568.9,223.3,568.9,223.4,568.8,223.5C568.9,223.5,568.8,223.5,568.8,223.5z"/>
<path class="st2" d="M563.8,225.1L563.8,225.1L545,214.3c-0.1,0-0.1-0.1,0-0.2c0-0.1,0.1-0.1,0.2,0l0,0l18.7,10.8
	C563.9,224.9,563.9,225,563.8,225.1C563.9,225.1,563.9,225.1,563.8,225.1C563.9,225.1,563.8,225.1,563.8,225.1z"/>
<path class="st2" d="M559.2,226.5L559.2,226.5l-18.8-10.8c0,0,0-0.1,0-0.2c0-0.1,0.1-0.1,0.1-0.1c0,0,0,0,0,0l18.7,10.8
	c0,0,0,0.1,0,0.2C559.2,226.5,559.2,226.5,559.2,226.5z"/>
<path class="st2" d="M554.8,227.5L554.8,227.5L536,216.7c-0.1,0-0.1-0.1-0.1-0.2c0-0.1,0.1-0.1,0.2-0.1c0,0,0,0,0.1,0l18.7,10.8
	C554.9,227.3,554.9,227.4,554.8,227.5C554.8,227.5,554.8,227.5,554.8,227.5z"/>
<path class="st2" d="M550.2,228.9L550.2,228.9l-18.8-10.8c0,0,0-0.1,0-0.2c0.1,0,0.1,0,0.2,0l18.7,10.8c0,0,0,0.1,0,0.2c0,0,0,0,0,0
	C550.3,228.9,550.2,228.9,550.2,228.9z"/>
<ellipse transform="matrix(0.7746 -0.6324 0.6324 0.7746 8.1318 480.584)" class="st1" cx="678.3" cy="228.9" rx="17.2" ry="14.7"/>
<path class="st2" d="M675.8,245.6c-0.3,0-0.7,0-1,0c-4.3-0.2-8.3-2.2-10.9-5.6c-2.6-3.5-3.5-8-2.4-12.3l0,0
	c2-9.1,11.2-16.1,20.4-15.5c4.3,0.2,8.3,2.2,10.9,5.6c2.6,3.5,3.5,8,2.4,12.3C693,239,685,245.4,675.8,245.6z M663.5,228.2
	c-0.9,3.7-0.2,7.6,2.1,10.6c2.3,2.9,5.7,4.7,9.4,4.8c8.3,0.5,16.5-5.8,18.3-14c0.9-3.7,0.2-7.6-2.1-10.6c-2.3-2.9-5.7-4.7-9.4-4.8
	C673.5,213.7,665.3,219.9,663.5,228.2L663.5,228.2z"/>
<g class="st4">
	<path class="st1" d="M468.6,419.1c16.8,0.3,24.2,11.2,24.2,22c0,13.4-11.9,21.1-23.5,22c-5.2,0.4-10.3,0.4-14.5,0.4v28.3H440v-72.7
		L468.6,419.1z M468.9,449.9c5.4-0.7,8.7-3.7,8.7-8.6c0-5.2-2.1-7.8-8.3-8.6c-4.4-0.6-9.3-0.8-14.4-0.8v18.7
		C459.5,450.6,464.5,450.5,468.9,449.9z"/>
	<path class="st1" d="M497.7,471.3c0-1.5-0.1-3-0.1-4.6l-0.2-49.9h14.2l0.3,49.5c0,2.8,0.4,5,1.1,6.7c1.1,4.6,6.3,5.1,8.4,5.2
		c1.6,1.9-1.3,11.8-2.9,13.5C504.3,491.5,498.3,483.8,497.7,471.3z"/>
	<path class="st1" d="M578.4,491.9h-14.2v-5c-4,3.8-9.2,6.2-16.4,5.7c-12.9-1.1-22.5-12.6-22.5-26.1s9.6-25,22.5-26.1
		c1-0.1,2-0.2,3.3-0.2c5.2-0.1,12.8,0.7,18.2,2.9c1.5-0.3,2.7-0.4,3.4-0.4c2,0.4,4,0.8,5.7,1.3V491.9z M552.3,479.8
		c7.1,0,11.9-5.2,12-13.1v-0.3c0-8-5.1-13.3-12-13.4c-7,0-12.1,5.3-12.1,13.4C540.2,474.5,545.1,479.8,552.3,479.8z"/>
	<path class="st1" d="M585.8,491.9v-51.2h12.4v3c3.3-2.1,7.3-3.5,12.3-3.5c15.1-0.1,24.3,8.8,24.2,23l0.1,28.7h-14.2l-0.1-26.4
		c0-8.6-3.2-12.6-10-12.6c-5.9,0-9.4,3.4-9.8,10c-0.2,1.4-0.2,3-0.2,4.7v24.4H585.8z"/>
	<path class="st1" d="M644.9,426.6h14.3v15.7h9.8v12.1h-9.8v14.1c0,1.1,0,2.1,0.1,3.1c0.2,4,1.2,6.1,3.3,6.7c2,0.8,4.2,0.2,5.6,0.2
		l2.2,12.6c-1.8-0.1-6.2,1.3-11.1,0.9c-10.9-1.2-13.8-9.3-14.2-17.7c-0.1-1.8-0.1-3.6-0.1-5.5l-0.1-14.3h-7.1v-12.1h7.1V426.6z"/>
	<path class="st1" d="M704.1,432.3c-6-0.1-9.6,3.5-9.7,7.5c0,8.3,35.2,9.6,35.2,30.4c0,0.7-0.1,1.4-0.3,2.1
		c-1.1,10.4-12.3,20.3-25.7,20.3c-9.6,0-20.9-6.5-26.8-12.2l9.9-8.7c3.1,3,9.9,6.3,16.5,6.3c6.6,0,10.7-2.5,10.7-7.3
		c0-10.5-34-11.9-34.1-30.6c0-10.8,9.6-21.8,22.8-21.8c8.3,0,19.4,3.9,24.2,10.6l-10.3,7.9C712.6,432.6,709.3,432.3,704.1,432.3z"/>
	<path class="st1" d="M787.6,491.9h-14.2v-5c-4,3.8-9.2,6.2-16.4,5.7c-12.9-1.1-22.5-12.6-22.5-26.1s9.6-25,22.5-26.1
		c1-0.1,2-0.2,3.3-0.2c5.2-0.1,12.8,0.7,18.2,2.9c1.5-0.3,2.7-0.4,3.4-0.4c2,0.4,4,0.8,5.7,1.3V491.9z M761.5,479.8
		c7.1,0,11.9-5.2,12-13.1v-0.3c0-8-5.1-13.3-12-13.4c-7,0-12.1,5.3-12.1,13.4C749.4,474.5,754.3,479.8,761.5,479.8z"/>
	<path class="st1" d="M797.8,426.6h14.3v15.7h9.8v12.1h-9.8v14.1c0,1.1,0,2.1,0.1,3.1c0.2,4,1.2,6.1,3.3,6.7c2,0.8,4.2,0.2,5.6,0.2
		l2.2,12.6c-1.8-0.1-6.2,1.3-11.1,0.9c-10.9-1.2-13.8-9.3-14.2-17.7c-0.1-1.8-0.1-3.6-0.1-5.5l-0.1-14.3h-7.1v-12.1h7.1V426.6z"/>
</g>
</svg>
