<?xml version="1.0" standalone="no"?>
<!DOCTYPE svg PUBLIC "-//W3C//DTD SVG 20010904//EN"
 "http://www.w3.org/TR/2001/REC-SVG-20010904/DTD/svg10.dtd">
<svg version="1.0" xmlns="http://www.w3.org/2000/svg"
 width="512.000000pt" height="512.000000pt" viewBox="0 0 512.000000 512.000000"
 preserveAspectRatio="xMidYMid meet">

<g transform="translate(0.000000,512.000000) scale(0.100000,-0.100000)"
fill="#000000" stroke="none">
<path d="M306 5109 c-62 -15 -153 -68 -197 -116 -22 -24 -55 -74 -72 -111
l-32 -67 0 -1216 0 -1215 37 -76 c45 -91 103 -147 196 -191 l67 -32 895 0 895
0 67 32 c93 44 151 100 196 191 l37 76 0 1216 0 1216 -37 76 c-45 91 -103 147
-196 191 l-67 32 -875 2 c-508 1 -891 -3 -914 -8z m1768 -161 c55 -16 138 -99
154 -154 17 -60 17 -2328 0 -2388 -16 -55 -99 -138 -154 -154 -59 -17 -1689
-17 -1748 0 -55 16 -138 99 -154 154 -17 60 -17 2328 0 2388 15 51 99 137 148
153 52 16 1698 17 1754 1z"/>
<path d="M3026 5109 c-62 -15 -153 -68 -197 -116 -22 -24 -55 -74 -72 -111
l-32 -67 0 -575 0 -575 32 -67 c44 -93 100 -151 191 -196 l76 -37 895 0 896 0
67 32 c93 44 151 100 196 191 l37 76 0 576 0 576 -37 76 c-45 91 -103 147
-196 191 l-67 32 -875 2 c-508 1 -891 -3 -914 -8z m1768 -161 c55 -16 138 -99
154 -154 17 -59 17 -1049 0 -1108 -16 -55 -99 -138 -154 -154 -59 -17 -1689
-17 -1748 0 -55 16 -138 99 -154 154 -9 30 -12 181 -12 554 0 373 3 524 12
554 15 51 99 137 148 153 52 16 1698 17 1754 1z"/>
<path d="M3026 3029 c-62 -15 -153 -68 -197 -116 -22 -24 -55 -74 -72 -111
l-32 -67 0 -1216 0 -1215 37 -76 c45 -91 103 -147 196 -191 l67 -32 895 0 895
0 67 32 c93 44 151 100 196 191 l37 76 0 1216 0 1216 -37 76 c-45 91 -103 147
-196 191 l-67 32 -875 2 c-508 1 -891 -3 -914 -8z m1768 -161 c55 -16 138 -99
154 -154 17 -60 17 -2328 0 -2388 -16 -55 -99 -138 -154 -154 -59 -17 -1689
-17 -1748 0 -55 16 -138 99 -154 154 -17 60 -17 2328 0 2388 15 51 99 137 148
153 52 16 1698 17 1754 1z"/>
<path d="M306 1749 c-62 -15 -153 -68 -197 -116 -22 -24 -55 -74 -72 -111
l-32 -67 0 -575 0 -575 32 -67 c44 -93 100 -151 191 -196 l76 -37 895 0 896 0
67 32 c93 44 151 100 196 191 l37 76 0 576 0 576 -37 76 c-45 91 -103 147
-196 191 l-67 32 -875 2 c-508 1 -891 -3 -914 -8z m1768 -161 c55 -16 138 -99
154 -154 17 -59 17 -1049 0 -1108 -16 -55 -99 -138 -154 -154 -59 -17 -1689
-17 -1748 0 -55 16 -138 99 -154 154 -17 59 -17 1049 0 1108 15 51 99 137 148
153 52 16 1698 17 1754 1z"/>
</g>
</svg>
