<?xml version="1.0" encoding="UTF-8" standalone="no"?> <svg width="64" height="64" viewBox="0 0 64 64" fill="none" xmlns="http://www.w3.org/2000/svg">
<path d="M12 5.84009C10.9794 5.84009 9.98178 6.14272 9.13323 6.7097C8.28467 7.27669 7.6233 8.08257 7.23275 9.02544C6.8422 9.96831 6.74002 11.0058 6.93912 12.0068C7.13822 13.0077 7.62966 13.9271 8.3513 14.6488C9.07294 15.3704 9.99236 15.8618 10.9933 16.0609C11.9942 16.26 13.0317 16.1579 13.9746 15.7673C14.9175 15.3768 15.7234 14.7154 16.2904 13.8668C16.8573 13.0183 17.16 12.0206 17.16 11.0001C17.1573 9.63238 16.6128 8.32145 15.6457 7.35434C14.6786 6.38722 13.3677 5.84273 12 5.84009V5.84009ZM12 13.6601C11.4739 13.6601 10.9596 13.5041 10.5222 13.2118C10.0847 12.9195 9.74378 12.5041 9.54245 12.018C9.34112 11.532 9.28844 10.9971 9.39108 10.4811C9.49372 9.96516 9.74706 9.49119 10.1191 9.11918C10.4911 8.74718 10.965 8.49384 11.481 8.3912C11.997 8.28856 12.5319 8.34124 13.0179 8.54257C13.504 8.7439 13.9194 9.08484 14.2117 9.52227C14.504 9.95971 14.66 10.474 14.66 11.0001C14.66 11.7056 14.3797 12.3821 13.8809 12.881C13.382 13.3798 12.7054 13.6601 12 13.6601V13.6601Z" fill="black"/>
<path d="M24.9099 12.3401H55.9099C56.2414 12.3401 56.5594 12.2084 56.7938 11.974C57.0282 11.7396 57.1599 11.4216 57.1599 11.0901C57.1599 10.7586 57.0282 10.4406 56.7938 10.2062C56.5594 9.97178 56.2414 9.84009 55.9099 9.84009H24.9099C24.5784 9.84009 24.2605 9.97178 24.026 10.2062C23.7916 10.4406 23.6599 10.7586 23.6599 11.0901C23.6599 11.4216 23.7916 11.7396 24.026 11.974C24.2605 12.2084 24.5784 12.3401 24.9099 12.3401V12.3401Z" fill="black"/>
<path d="M12 19.8401C10.9794 19.8401 9.98178 20.1427 9.13323 20.7097C8.28467 21.2767 7.6233 22.0826 7.23275 23.0254C6.8422 23.9683 6.74002 25.0058 6.93912 26.0068C7.13822 27.0077 7.62966 27.9271 8.3513 28.6488C9.07294 29.3704 9.99236 29.8618 10.9933 30.0609C11.9942 30.26 13.0317 30.1579 13.9746 29.7673C14.9175 29.3768 15.7234 28.7154 16.2904 27.8668C16.8573 27.0183 17.16 26.0206 17.16 25.0001C17.1573 23.6324 16.6128 22.3215 15.6457 21.3543C14.6786 20.3872 13.3677 19.8427 12 19.8401V19.8401ZM12 27.6601C11.4739 27.6601 10.9596 27.5041 10.5222 27.2118C10.0847 26.9195 9.74378 26.5041 9.54245 26.018C9.34112 25.532 9.28844 24.9971 9.39108 24.4811C9.49372 23.9652 9.74706 23.4912 10.1191 23.1192C10.4911 22.7472 10.965 22.4938 11.481 22.3912C11.997 22.2886 12.5319 22.3412 13.0179 22.5426C13.504 22.7439 13.9194 23.0848 14.2117 23.5223C14.504 23.9597 14.66 24.474 14.66 25.0001C14.66 25.7056 14.3797 26.3821 13.8809 26.881C13.382 27.3798 12.7054 27.6601 12 27.6601V27.6601Z" fill="black"/>
<path d="M55.9099 23.8401H24.9099C24.5784 23.8401 24.2605 23.9718 24.026 24.2062C23.7916 24.4406 23.6599 24.7586 23.6599 25.0901C23.6599 25.4216 23.7916 25.7395 24.026 25.974C24.2605 26.2084 24.5784 26.3401 24.9099 26.3401H55.9099C56.2414 26.3401 56.5594 26.2084 56.7938 25.974C57.0282 25.7395 57.1599 25.4216 57.1599 25.0901C57.1599 24.7586 57.0282 24.4406 56.7938 24.2062C56.5594 23.9718 56.2414 23.8401 55.9099 23.8401V23.8401Z" fill="black"/>
<path d="M12 33.8401C10.9794 33.8401 9.98178 34.1427 9.13323 34.7097C8.28467 35.2767 7.6233 36.0826 7.23275 37.0254C6.8422 37.9683 6.74002 39.0058 6.93912 40.0068C7.13822 41.0077 7.62966 41.9271 8.3513 42.6488C9.07294 43.3704 9.99236 43.8618 10.9933 44.0609C11.9942 44.26 13.0317 44.1579 13.9746 43.7673C14.9175 43.3768 15.7234 42.7154 16.2904 41.8668C16.8573 41.0183 17.16 40.0206 17.16 39.0001C17.1573 37.6324 16.6128 36.3215 15.6457 35.3543C14.6786 34.3872 13.3677 33.8427 12 33.8401V33.8401ZM12 41.6601C11.4739 41.6601 10.9596 41.5041 10.5222 41.2118C10.0847 40.9195 9.74378 40.5041 9.54245 40.018C9.34112 39.532 9.28844 38.9971 9.39108 38.4811C9.49372 37.9652 9.74706 37.4912 10.1191 37.1192C10.4911 36.7472 10.965 36.4938 11.481 36.3912C11.997 36.2886 12.5319 36.3412 13.0179 36.5426C13.504 36.7439 13.9194 37.0848 14.2117 37.5223C14.504 37.9597 14.66 38.474 14.66 39.0001C14.66 39.7056 14.3797 40.3821 13.8809 40.881C13.382 41.3798 12.7054 41.6601 12 41.6601V41.6601Z" fill="black"/>
<path d="M55.9099 37.8401H24.9099C24.5784 37.8401 24.2605 37.9718 24.026 38.2062C23.7916 38.4406 23.6599 38.7586 23.6599 39.0901C23.6599 39.4216 23.7916 39.7396 24.026 39.974C24.2605 40.2084 24.5784 40.3401 24.9099 40.3401H55.9099C56.2414 40.3401 56.5594 40.2084 56.7938 39.974C57.0282 39.7396 57.1599 39.4216 57.1599 39.0901C57.1599 38.7586 57.0282 38.4406 56.7938 38.2062C56.5594 37.9718 56.2414 37.8401 55.9099 37.8401V37.8401Z" fill="black"/>
<path d="M12 47.8401C10.9794 47.8401 9.98178 48.1427 9.13323 48.7097C8.28467 49.2767 7.6233 50.0826 7.23275 51.0254C6.8422 51.9683 6.74002 53.0058 6.93912 54.0068C7.13822 55.0077 7.62966 55.9271 8.3513 56.6488C9.07294 57.3704 9.99236 57.8618 10.9933 58.0609C11.9942 58.26 13.0317 58.1579 13.9746 57.7673C14.9175 57.3768 15.7234 56.7154 16.2904 55.8668C16.8573 55.0183 17.16 54.0206 17.16 53.0001C17.1573 51.6324 16.6128 50.3215 15.6457 49.3543C14.6786 48.3872 13.3677 47.8427 12 47.8401V47.8401ZM12 55.6601C11.4739 55.6601 10.9596 55.5041 10.5222 55.2118C10.0847 54.9195 9.74378 54.5041 9.54245 54.018C9.34112 53.532 9.28844 52.9971 9.39108 52.4811C9.49372 51.9652 9.74706 51.4912 10.1191 51.1192C10.4911 50.7472 10.965 50.4938 11.481 50.3912C11.997 50.2886 12.5319 50.3412 13.0179 50.5426C13.504 50.7439 13.9194 51.0848 14.2117 51.5223C14.504 51.9597 14.66 52.474 14.66 53.0001C14.66 53.7056 14.3797 54.3821 13.8809 54.881C13.382 55.3798 12.7054 55.6601 12 55.6601V55.6601Z" fill="black"/>
<path d="M55.9099 51.8401H24.9099C24.5784 51.8401 24.2605 51.9718 24.026 52.2062C23.7916 52.4406 23.6599 52.7586 23.6599 53.0901C23.6599 53.4216 23.7916 53.7396 24.026 53.974C24.2605 54.2084 24.5784 54.3401 24.9099 54.3401H55.9099C56.2414 54.3401 56.5594 54.2084 56.7938 53.974C57.0282 53.7396 57.1599 53.4216 57.1599 53.0901C57.1599 52.7586 57.0282 52.4406 56.7938 52.2062C56.5594 51.9718 56.2414 51.8401 55.9099 51.8401V51.8401Z" fill="black"/>
</svg>
