<?xml version="1.0" encoding="iso-8859-1"?>
<!-- Generator: Adobe Illustrator 18.0.0, SVG Export Plug-In . SVG Version: 6.00 Build 0)  -->
<!DOCTYPE svg PUBLIC "-//W3C//DTD SVG 1.1//EN" "http://www.w3.org/Graphics/SVG/1.1/DTD/svg11.dtd">
<svg version="1.1" id="Capa_1" xmlns="http://www.w3.org/2000/svg" xmlns:xlink="http://www.w3.org/1999/xlink" x="0px" y="0px"
	 viewBox="0 0 487.865 487.865" style="enable-background:new 0 0 487.865 487.865;" xml:space="preserve">
<path d="M429.368,0.78c-19.909,0-37.512,10.007-48.077,25.248c-4.506-3.234-10.021-5.146-15.977-5.146H123.535
	c-6.243,0-12.004,2.098-16.622,5.62C96.382,10.995,78.614,0.78,58.497,0.78C26.241,0.78,0,27.021,0,59.277
	c0,41.784,19.179,83.895,51.304,112.648c24.351,21.795,52.935,33.425,81.59,33.425c0.935,0,1.87-0.014,2.805-0.039l24.151,139.184
	c0.872,5.031,5.238,8.705,10.345,8.705h4.435l-11.148,40.234h-6.436c-5.799,0-10.5,4.701-10.5,10.5v72.65
	c0,5.799,4.701,10.5,10.5,10.5h174.76c5.799,0,10.5-4.701,10.5-10.5v-72.65c0-5.799-4.701-10.5-10.5-10.5h-6.436l-11.148-40.234
	h4.435c5.106,0,9.473-3.674,10.346-8.705l24.148-139.17c0.607,0.01,1.215,0.025,1.822,0.025c28.653,0,57.24-11.631,81.59-33.425
	c32.125-28.753,51.304-70.865,51.304-112.648C487.865,27.021,461.624,0.78,429.368,0.78z M117.068,48.35
	c0-3.566,2.901-6.467,6.467-6.467h241.779c3.566,0,6.468,2.901,6.468,6.467v8.483c0,3.566-2.901,6.467-6.468,6.467H123.535
	c-3.565,0-6.467-2.901-6.467-6.467V48.35z M65.309,156.278C37.563,131.445,21,95.183,21,59.277C21,38.601,37.821,21.78,58.497,21.78
	c19.255,0,35.623,15.608,37.571,33.165c0.052,0.469,0,1.888,0,1.888c0,11.954,7.68,22.144,18.362,25.909L132.06,184.34
	C108.86,184.1,85.496,174.347,65.309,156.278z M321.305,414.435v51.65h-153.76v-51.65H321.305z M303.578,393.435H185.271
	l11.148-40.234h96.01L303.578,393.435z M309.82,332.201H179.029L136.014,84.3h216.822L309.82,332.201z M422.557,156.278
	c-19.9,17.811-42.891,27.533-65.762,28.039L374.42,82.742c10.683-3.765,18.362-13.955,18.362-25.909c0,0-0.23-4.327,0-5.745
	c2.755-16.95,18.723-29.309,36.586-29.309c20.676,0,37.497,16.821,37.497,37.497C466.865,95.183,450.302,131.445,422.557,156.278z"
	/>
<g>
</g>
<g>
</g>
<g>
</g>
<g>
</g>
<g>
</g>
<g>
</g>
<g>
</g>
<g>
</g>
<g>
</g>
<g>
</g>
<g>
</g>
<g>
</g>
<g>
</g>
<g>
</g>
<g>
</g>
</svg>
