<?xml version="1.0" encoding="iso-8859-1"?>
<!-- Generator: Adobe Illustrator 18.0.0, SVG Export Plug-In . SVG Version: 6.00 Build 0)  -->
<!DOCTYPE svg PUBLIC "-//W3C//DTD SVG 1.1//EN" "http://www.w3.org/Graphics/SVG/1.1/DTD/svg11.dtd">
<svg version="1.1" id="Capa_1" xmlns="http://www.w3.org/2000/svg" xmlns:xlink="http://www.w3.org/1999/xlink" x="0px" y="0px"
	 viewBox="0 0 458.151 458.151" style="enable-background:new 0 0 458.151 458.151;" xml:space="preserve">
<g>
	<path d="M83.524,41.762C83.524,18.734,64.79,0,41.763,0C18.734,0,0,18.734,0,41.762c0,12.981,5.954,24.596,15.274,32.262
		C5.954,81.69,0,93.305,0,106.286v29.208c0,5.247,4.253,9.5,9.5,9.5h64.524c5.247,0,9.5-4.253,9.5-9.5v-29.208
		c0-12.981-5.954-24.596-15.274-32.262C77.57,66.359,83.524,54.743,83.524,41.762z M64.524,106.286v19.708H19v-19.708
		c0-12.551,10.211-22.762,22.763-22.762C54.313,83.524,64.524,93.735,64.524,106.286z M19,41.762C19,29.211,29.211,19,41.763,19
		c12.551,0,22.762,10.211,22.762,22.762S54.313,64.524,41.763,64.524C29.211,64.524,19,54.313,19,41.762z"/>
	<path d="M442.877,74.024c9.32-7.666,15.274-19.281,15.274-32.262C458.151,18.734,439.417,0,416.39,0s-41.762,18.734-41.762,41.762
		c0,12.981,5.954,24.596,15.274,32.262c-9.32,7.666-15.274,19.281-15.274,32.262v29.208c0,5.247,4.253,9.5,9.5,9.5h64.523
		c5.247,0,9.5-4.253,9.5-9.5v-29.208C458.151,93.305,452.197,81.69,442.877,74.024z M393.628,41.762
		C393.628,29.211,403.839,19,416.39,19s22.762,10.211,22.762,22.762S428.94,64.524,416.39,64.524S393.628,54.313,393.628,41.762z
		 M439.151,125.994h-45.523v-19.708c0-12.551,10.211-22.762,22.762-22.762s22.762,10.211,22.762,22.762V125.994z"/>
	<path d="M83.524,354.92c0-23.028-18.734-41.762-41.762-41.762C18.734,313.158,0,331.892,0,354.92
		c0,12.981,5.954,24.597,15.274,32.262C5.954,394.847,0,406.463,0,419.444v29.208c0,5.247,4.253,9.5,9.5,9.5h64.524
		c5.247,0,9.5-4.253,9.5-9.5v-29.208c0-12.981-5.954-24.596-15.274-32.262C77.57,379.516,83.524,367.901,83.524,354.92z
		 M64.524,419.444v19.708H19v-19.708c0-12.551,10.211-22.762,22.763-22.762C54.313,396.682,64.524,406.893,64.524,419.444z
		 M19,354.92c0-12.551,10.211-22.762,22.763-22.762c12.551,0,22.762,10.211,22.762,22.762s-10.211,22.762-22.762,22.762
		C29.211,377.682,19,367.471,19,354.92z"/>
	<path d="M458.151,354.92c0-23.028-18.734-41.762-41.762-41.762s-41.762,18.734-41.762,41.762c0,12.981,5.954,24.597,15.274,32.262
		c-9.32,7.666-15.274,19.281-15.274,32.262v29.208c0,5.247,4.253,9.5,9.5,9.5h64.523c5.247,0,9.5-4.253,9.5-9.5v-29.208
		c0-12.981-5.955-24.596-15.274-32.262C452.197,379.516,458.151,367.901,458.151,354.92z M439.151,419.444v19.708h-45.523v-19.708
		c0-12.551,10.211-22.762,22.762-22.762S439.151,406.893,439.151,419.444z M393.628,354.92c0-12.551,10.211-22.762,22.762-22.762
		s22.762,10.211,22.762,22.762s-10.211,22.762-22.762,22.762S393.628,367.471,393.628,354.92z"/>
	<path d="M270.838,196.814c0-23.028-18.734-41.762-41.762-41.762c-23.028,0-41.763,18.734-41.763,41.762
		c0,12.981,5.954,24.596,15.274,32.262c-9.32,7.666-15.274,19.281-15.274,32.262v29.208c0,5.247,4.253,9.5,9.5,9.5h64.524
		c5.247,0,9.5-4.253,9.5-9.5v-29.208c0-12.981-5.954-24.596-15.274-32.262C264.883,221.41,270.838,209.795,270.838,196.814z
		 M251.838,261.338v19.708h-45.524v-19.708c0-12.551,10.211-22.762,22.763-22.762C241.627,238.576,251.838,248.787,251.838,261.338z
		 M206.313,196.814c0-12.551,10.211-22.762,22.763-22.762c12.551,0,22.762,10.211,22.762,22.762s-10.211,22.762-22.762,22.762
		C216.524,219.576,206.313,209.365,206.313,196.814z"/>
	<path d="M154.064,290.652l-46.641,46.641c-3.71,3.71-3.71,9.725,0,13.435c1.855,1.855,4.286,2.782,6.718,2.782
		s4.862-0.927,6.718-2.782l46.641-46.641c3.71-3.71,3.71-9.725,0-13.435C163.789,286.942,157.775,286.942,154.064,290.652z"/>
	<path d="M337.293,107.424l-46.642,46.641c-3.71,3.71-3.71,9.725,0,13.435c1.855,1.855,4.286,2.782,6.718,2.782
		c2.431,0,4.862-0.928,6.718-2.782l46.642-46.641c3.71-3.71,3.71-9.725,0-13.435C347.018,103.714,341.004,103.713,337.293,107.424z"
		/>
	<path d="M304.087,290.652c-3.711-3.71-9.725-3.71-13.436,0c-3.71,3.71-3.71,9.725,0,13.435l46.642,46.641
		c1.855,1.855,4.286,2.782,6.718,2.782s4.862-0.927,6.718-2.782c3.71-3.71,3.71-9.725,0-13.435L304.087,290.652z"/>
	<path d="M120.859,107.424c-3.71-3.71-9.724-3.71-13.436,0c-3.71,3.71-3.71,9.725,0,13.435l46.641,46.641
		c1.855,1.855,4.286,2.782,6.718,2.782c2.431,0,4.862-0.928,6.718-2.782c3.71-3.71,3.71-9.725,0-13.435L120.859,107.424z"/>
</g>
<g>
</g>
<g>
</g>
<g>
</g>
<g>
</g>
<g>
</g>
<g>
</g>
<g>
</g>
<g>
</g>
<g>
</g>
<g>
</g>
<g>
</g>
<g>
</g>
<g>
</g>
<g>
</g>
<g>
</g>
</svg>
