<?xml version="1.0" encoding="iso-8859-1"?>
<!-- Generator: Adobe Illustrator 17.1.0, SVG Export Plug-In . SVG Version: 6.00 Build 0)  -->
<!DOCTYPE svg PUBLIC "-//W3C//DTD SVG 1.1//EN" "http://www.w3.org/Graphics/SVG/1.1/DTD/svg11.dtd">
<svg version="1.1" id="Capa_1" xmlns="http://www.w3.org/2000/svg" xmlns:xlink="http://www.w3.org/1999/xlink" x="0px" y="0px"
	 viewBox="0 0 473.941 473.941" style="enable-background:new 0 0 473.941 473.941;" xml:space="preserve">
<g>
	<path d="M427.936,441.904c-24.758-24.758-39.071-57.177-40.728-91.913c20.303-3.632,35.767-21.408,35.767-42.74
		c0-1.469-0.075-2.953-0.222-4.413l-4.59-45.386c-0.002-0.016-9.179-90.764-9.179-90.764c-0.001-0.012-9.179-90.763-9.179-90.763
		c-0.001-0.012-4.589-45.376-4.589-45.376C393.427,13.112,378.894,0,361.384,0c-17.526,0-32.07,13.134-33.831,30.551l-9.177,90.738
		c-0.003,0.025-9.179,90.762-9.179,90.762c-0.003,0.026-9.182,90.789-9.182,90.789c-0.148,1.462-0.223,2.946-0.223,4.412
		c0,21.331,15.463,39.108,35.767,42.74c-1.657,34.735-15.97,67.155-40.728,91.913c-2.929,2.93-2.929,7.678,0,10.607
		c1.464,1.464,3.384,2.196,5.303,2.196s3.839-0.732,5.303-2.196c27.428-27.428,43.28-63.347,45.105-101.829h3.341v115.759
		c0,4.143,3.358,7.5,7.5,7.5s7.5-3.357,7.5-7.5V350.683h3.34c1.826,38.483,17.677,74.401,45.106,101.829
		c1.464,1.464,3.384,2.196,5.303,2.196s3.839-0.732,5.303-2.196C430.865,449.582,430.865,444.834,427.936,441.904z M343.223,335.683
		c-15.677,0-28.431-12.754-28.431-28.431c0-0.964,0.049-1.942,0.146-2.903l8.497-84.018h38.631c4.142,0,7.5-3.357,7.5-7.5
		s-3.358-7.5-7.5-7.5h-37.114l7.662-75.763h34.317c4.142,0,7.5-3.357,7.5-7.5s-3.358-7.5-7.5-7.5h-32.8l8.344-82.508
		C343.46,22.334,351.588,15,361.384,15c6.739,0,12.689,3.472,16.066,8.806h-2.435c-4.142,0-7.5,3.357-7.5,7.5s3.358,7.5,7.5,7.5
		h5.959l3.073,30.382h-23.621c-4.142,0-7.5,3.357-7.5,7.5s3.358,7.5,7.5,7.5h25.138l7.662,75.763h-31.159
		c-4.142,0-7.5,3.357-7.5,7.5s3.358,7.5,7.5,7.5h32.676l7.662,75.762h-10.338c-4.142,0-7.5,3.357-7.5,7.5s3.358,7.5,7.5,7.5h11.855
		l3.907,38.636c0.097,0.96,0.146,1.937,0.146,2.904c0,15.677-12.754,28.431-28.43,28.431H343.223z"/>
	<path d="M392.79,303.594c0-4.143-3.358-7.5-7.5-7.5h-47.813c-4.142,0-7.5,3.357-7.5,7.5s3.358,7.5,7.5,7.5h47.813
		C389.433,311.094,392.79,307.736,392.79,303.594z"/>
	<path d="M342.066,265.712h20c4.142,0,7.5-3.357,7.5-7.5s-3.358-7.5-7.5-7.5h-20c-4.142,0-7.5,3.357-7.5,7.5
		S337.924,265.712,342.066,265.712z"/>
	<path d="M255.524,153.23c0-23.529-8.556-45.815-24.186-63.232c1.378-5.643,2.075-11.444,2.075-17.307
		C233.414,32.609,200.804,0,160.722,0C120.64,0,88.03,32.609,88.03,72.691c0,5.863,0.697,11.666,2.075,17.307
		c-15.63,17.418-24.186,39.703-24.186,63.232c0,3.743,0.221,7.501,0.658,11.211c-14.908,20.183-22.769,44.083-22.769,69.329
		c0,61.946,48.43,112.785,109.413,116.666V462.5c0,4.143,3.358,7.5,7.5,7.5s7.5-3.357,7.5-7.5V350.436
		c60.984-3.881,109.413-54.72,109.413-116.666c0-25.247-7.86-49.146-22.768-69.329C255.303,160.732,255.524,156.975,255.524,153.23z
		 M160.722,15c31.812,0,57.692,25.88,57.692,57.691c0,5.245-0.706,10.424-2.09,15.424l-48.102,48.1V72.691
		c0-4.143-3.358-7.5-7.5-7.5s-7.5,3.357-7.5,7.5v63.526l-6.9-6.9c-2.929-2.928-7.678-2.928-10.606,0
		c-2.929,2.93-2.929,7.678,0,10.607l17.507,17.506v77.103l-71.701-71.539c-0.393-3.228-0.601-6.501-0.601-9.765
		c0-18.496,6.288-36.077,17.837-50.264l15.745,15.746c1.464,1.464,3.384,2.196,5.303,2.196c1.919,0,3.839-0.732,5.303-2.196
		c2.929-2.93,2.929-7.678,0-10.607L105.12,88.116c-1.384-4.999-2.09-10.178-2.09-15.424C103.03,40.88,128.911,15,160.722,15z
		 M75.371,178.049l77.851,77.674v79.683c-52.706-3.852-94.413-47.963-94.413-101.636C58.809,213.695,64.509,194.599,75.371,178.049z
		 M168.222,255.916l45.396-45.396c2.929-2.929,2.929-7.676,0.001-10.606c-2.93-2.929-7.679-2.929-10.608-0.001l-34.789,34.79
		v-77.273l54.466-54.463c11.548,14.186,17.837,31.768,17.837,50.265c0,3.266-0.208,6.541-0.601,9.77l-15.699,15.699
		c-2.929,2.93-2.929,7.678,0,10.606c1.465,1.465,3.384,2.197,5.303,2.197s3.839-0.732,5.303-2.196l11.249-11.248
		c10.858,16.547,16.556,35.641,16.556,55.712c0,53.673-41.707,97.784-94.413,101.636V255.916z"/>
</g>
<g>
</g>
<g>
</g>
<g>
</g>
<g>
</g>
<g>
</g>
<g>
</g>
<g>
</g>
<g>
</g>
<g>
</g>
<g>
</g>
<g>
</g>
<g>
</g>
<g>
</g>
<g>
</g>
<g>
</g>
</svg>
