<svg width="400" height="400" viewBox="0 0 400 400" fill="none" xmlns="http://www.w3.org/2000/svg">
<path d="M199.996 0C89.713 0 0 89.72 0 200C0 310.28 89.713 400 199.996 400C310.279 400 400 310.28 400 200C400 89.72 310.279 0 199.996 0ZM199.996 373.77C104.18 373.77 26.23 295.816 26.23 200C26.23 104.183 104.179 26.231 199.996 26.231C295.813 26.231 373.767 104.184 373.767 200C373.768 295.816 295.812 373.77 199.996 373.77Z" fill="#7C9C3C"/>
<path d="M272.406 134.526L169.275 237.652L127.586 195.972C122.463 190.855 114.164 190.852 109.041 195.975C103.916 201.1 103.916 209.4 109.041 214.523L160.004 265.478C162.565 268.036 165.92 269.316 169.275 269.316C172.63 269.316 175.994 268.036 178.554 265.474C178.562 265.463 178.568 265.452 178.581 265.439L290.95 153.071C296.075 147.951 296.075 139.645 290.95 134.525C285.828 129.402 277.523 129.402 272.406 134.526Z" fill="#7C9C3C"/>
</svg>
