<?xml version="1.0" encoding="iso-8859-1"?>
<!-- Generator: Adobe Illustrator 19.0.0, SVG Export Plug-In . SVG Version: 6.00 Build 0)  -->
<svg version="1.1" id="Layer_1" xmlns="http://www.w3.org/2000/svg" xmlns:xlink="http://www.w3.org/1999/xlink" x="0px" y="0px"
	 viewBox="0 0 512.004 512.004" style="enable-background:new 0 0 512.004 512.004;" xml:space="preserve">
<g>
	<g>
		
			<rect x="90.907" y="358.358" transform="matrix(0.7071 -0.7071 0.7071 0.7071 -273.7513 212.2652)" width="56.888" height="156.443"/>
	</g>
</g>
<g>
	<g>
		<path d="M461.828,246.05c-8.331-8.331-21.838-8.331-30.17,0l-0.01-0.01L331.093,346.617l0.014-0.044
			c-11.897,12.437-28.713,20.251-47.137,20.251h-74.685v-42.667h74.685c11.935,0,22.212-9.29,22.212-20.719
			c0-13.018-10.169-21.948-21.325-21.948h-80.461c-17.089,0-33.159,6.657-45.247,18.745l-37.787,37.787l96.232,96.232l62.979-10.496
			c26.315-4.386,50.603-16.885,69.467-35.749L461.201,276.85c0.142-0.142,0.276-0.287,0.412-0.434
			c0.07-0.07,0.146-0.128,0.215-0.196C470.159,267.888,470.159,254.382,461.828,246.05z"/>
	</g>
</g>
<g>
	<g>
		<path d="M321.261,0c-47.167,0-85.333,38.167-85.333,85.333v28.444v125.045h42.667V112.579
			c40.381-6.764,71.111-41.816,71.111-84.134V0H321.261z"/>
	</g>
</g>
<g>
</g>
<g>
</g>
<g>
</g>
<g>
</g>
<g>
</g>
<g>
</g>
<g>
</g>
<g>
</g>
<g>
</g>
<g>
</g>
<g>
</g>
<g>
</g>
<g>
</g>
<g>
</g>
<g>
</g>
</svg>
