<svg width="244" height="239" viewBox="0 0 244 239" fill="none" xmlns="http://www.w3.org/2000/svg">
<path d="M192.19 87.2521C188.866 87.2521 186.171 89.9804 186.171 93.3456V204.619C186.171 216.377 176.718 225.946 165.102 225.946H33.1079C21.492 225.946 12.0394 216.377 12.0394 204.619V71.0004C12.0394 59.2417 21.492 49.6733 33.1079 49.6733H165.102C168.427 49.6733 171.122 46.945 171.122 43.5798C171.122 40.2147 168.427 37.4864 165.102 37.4864H33.1079C14.8519 37.4864 0 52.5204 0 71.0004V204.619C0 223.098 14.8519 238.133 33.1079 238.133H165.102C183.358 238.133 198.21 223.098 198.21 204.619V93.3461C198.21 89.9809 195.515 87.2521 192.19 87.2521Z" fill="#7C9C3C"/>
<path d="M238.548 6.37584C231.291 -0.970242 219.484 -0.967247 212.233 6.37584L109.125 110.755C108.987 110.894 107.432 112.531 107.029 113.447L92.7508 145.92C91.7367 148.226 92.2302 150.924 93.9936 152.708C95.1457 153.873 96.6858 154.492 98.2526 154.492C99.0783 154.492 99.91 154.32 100.698 153.965L132.777 139.511C133.679 139.104 135.298 137.529 135.437 137.39L238.548 33.0144C242.063 29.4556 244 24.7251 244 19.6936C244 14.6626 242.063 9.9311 238.548 6.37584ZM230.036 24.3947L126.925 128.773C126.907 128.791 126.897 128.812 126.881 128.827L110.124 136.378L117.584 119.416C117.599 119.398 117.619 119.389 117.637 119.371L220.745 14.993C223.229 12.4783 227.558 12.4813 230.036 14.9955C231.277 16.2481 231.961 17.9175 231.961 19.6936C231.961 21.4697 231.276 23.1386 230.036 24.3947Z" fill="#7C9C3C"/>
</svg>
