<?xml version="1.0" encoding="iso-8859-1"?>
<!-- Generator: Adobe Illustrator 19.0.0, SVG Export Plug-In . SVG Version: 6.00 Build 0)  -->
<svg version="1.1" id="Layer_1" xmlns="http://www.w3.org/2000/svg" xmlns:xlink="http://www.w3.org/1999/xlink" x="0px" y="0px"
	 viewBox="0 0 512 512" style="enable-background:new 0 0 512 512;" xml:space="preserve">
<g transform="translate(0 1)">
	<g>
		<g>
			<path d="M486.4,423.96c-50.93-27.008-89.996-42.152-124.772-47.958l3.599-4.948c1.707-1.707,2.56-4.267,1.707-6.827
				l-7.997-31.987c2.898-4.097,5.632-8.333,8.193-12.688c31.8-10.823,47.881-29.118,50.583-56.054
				c13.968-0.728,26.02-13.195,26.02-27.271v-64c0-14.012-11.147-26.429-25.75-27.26C416.104,95.671,394.368-1,256-1
				c-30.505,0-59.497,6.046-84.14,18.129C154.392,5.665,133.469-1,110.933-1C49.493-1,0,48.493,0,109.933
				c0,46.305,28.115,85.819,68.267,102.479v23.814c0,14.507,12.8,27.307,28.16,27.307h12.8c4.694,0,9.205-1.346,13.166-3.651
				c4.84,25.68,15.519,50.937,30.671,72.357l-7.997,31.987c0,1.707,0,4.267,1.707,6.827l3.599,4.948
				c-34.776,5.807-73.842,20.95-124.772,47.958C9.387,431.64,0,447.853,0,465.773v36.693C0,507.587,3.413,511,8.533,511h204.8h3.413
				h78.507h3.413h204.8c5.12,0,8.533-3.413,8.533-8.533v-36.693C512,448.707,501.76,432.493,486.4,423.96z M256.047,404.441
				l20.433,46.826h-41.245L256.047,404.441z M229.035,468.333h53.897l4.995,25.6h-64.013L229.035,468.333z M345.6,348.867
				l3.413,15.36l-8.717,11.969c-0.556,0.455-1.071,1.006-1.523,1.684l-35.495,49.147l-11.262,15.464l-23.005-51.761
				c28.058-3.422,53.044-17.722,73.077-38.212C343.272,351.324,344.444,350.111,345.6,348.867z M378.921,295.784
				c4.813-11.711,8.441-23.884,10.735-36.154c3.249,1.968,6.948,3.283,10.936,3.729
				C399.113,275.421,393.754,286.809,378.921,295.784z M425.813,171.373v64c0,5.12-4.267,10.24-10.24,10.24h-12.8
				c-5.12,0-10.24-4.267-10.24-10.24V229.4v-58.027c0-5.12,4.267-10.24,10.24-10.24h12.8
				C420.693,161.133,425.813,165.4,425.813,171.373z M256,16.067c52.597,0,141.118,17.17,144.924,128.992
				c-3.576,0.367-7.001,1.454-10.099,3.124C380.441,83.202,323.787,33.133,256,33.133c-18.73,0-37.46,3.95-55.035,11.843
				c-4.261-5.906-9.089-11.371-14.407-16.319C207.174,20.275,230.982,16.067,256,16.067z M17.067,109.933
				c0-52.053,41.813-93.867,93.867-93.867c32.952,0,61.795,16.76,78.53,42.263c0.227,0.785,0.527,1.503,0.83,2.11
				c8.742,13.511,13.778,29.243,14.429,45.816c0.008,0.197,0.016,0.395,0.022,0.592c0.034,1.026,0.055,2.053,0.055,3.085
				c0,1.354-0.034,2.701-0.091,4.041c-0.005,0.128-0.009,0.256-0.014,0.384c-0.063,1.353-0.154,2.698-0.273,4.035
				c-0.004,0.051-0.009,0.101-0.013,0.152c-3.85,42.184-35.737,76.352-78.114,83.548c-0.651,0.163-1.302,0.42-1.929,0.757
				c-4.385,0.622-8.868,0.95-13.431,0.95C58.88,203.8,17.067,161.987,17.067,109.933z M118.613,235.373
				c0,5.12-4.267,10.24-10.24,10.24h-12.8c-5.12,0-10.24-4.267-10.24-10.24v-17.458c2.656,0.623,5.35,1.151,8.077,1.581
				c8.401,1.682,16.802,2.017,25.203,1.371V235.373z M136.533,217.915c45.899-10.771,80.645-49.902,84.888-98.036
				c0.015-0.171,0.031-0.342,0.045-0.513c0.12-1.433,0.214-2.874,0.279-4.322c0.01-0.224,0.017-0.448,0.025-0.672
				c0.057-1.473,0.095-2.951,0.095-4.439c0-1.056-0.018-2.108-0.047-3.157c-0.008-0.279-0.022-0.557-0.032-0.835
				c-0.028-0.794-0.062-1.586-0.106-2.376c-0.015-0.27-0.034-0.538-0.051-0.808c-0.053-0.842-0.116-1.682-0.188-2.518
				c-0.016-0.18-0.031-0.361-0.048-0.541c-0.997-10.98-3.579-21.487-7.521-31.295c-0.001-0.002-0.002-0.005-0.003-0.007
				c-0.32-0.796-0.648-1.587-0.986-2.374c-0.227-0.533-0.46-1.063-0.694-1.592c-0.058-0.13-0.116-0.26-0.175-0.39
				c-0.671-1.498-1.363-2.986-2.097-4.453C224.427,53.613,239.787,50.2,256,50.2c65.707,0,119.467,53.76,119.467,119.467V229.4
				c0,28.232-7.35,54.079-19.266,75.887c-20.368,5.908-49.669,9.446-91.667,9.446c-5.12,0-8.533,3.413-8.533,8.533
				s3.413,8.533,8.533,8.533c30.745,0,56.458-1.888,77.515-5.835c-0.523,0.523-1.046,1.046-1.569,1.569
				c-4.293,5.724-8.824,10.943-13.558,15.649c-20.093,18.719-44.058,30.058-67.152,31.181c-1.162-0.499-2.465-0.75-3.77-0.75
				c-1.312,0-2.494,0.257-3.554,0.761c-14.136-0.648-28.603-5.129-42.316-12.793c-13.893-7.982-26.962-19.489-38.61-34.048
				c-0.853-0.853-1.707-1.707-2.56-2.56l-0.498-0.166c-19.164-25.134-31.929-58.199-31.929-95.407V217.915z M242.988,390.73
				l-23.005,51.761l-11.262-15.464l-35.495-49.147c-0.272-0.272-0.572-0.541-0.884-0.806l-9.356-12.847l3.413-15.36
				c1.155,1.244,2.327,2.456,3.509,3.649C189.942,373.006,214.93,387.307,242.988,390.73z M17.067,465.773
				c0-11.093,5.973-21.333,16.213-26.453c54.393-28.896,93.548-43.399,128.428-47.731l50.922,70.018l-6.465,32.326H17.067V465.773z
				 M494.933,493.933H305.835l-6.465-32.326l51.474-70.777c34.757,5.245,74.615,19.737,127.877,47.636
				c10.24,5.973,16.213,16.213,16.213,27.307V493.933z"/>
			<path d="M119.467,127H153.6v17.067c0,5.12,3.413,8.533,8.533,8.533s8.533-3.413,8.533-8.533V127h8.533
				c5.12,0,8.533-3.413,8.533-8.533s-3.413-8.533-8.533-8.533h-8.533V67.267c0-3.413-2.56-6.827-5.973-8.533
				c-3.413-0.853-6.827,0-9.387,2.56l-42.667,51.2c-1.707,2.56-2.56,5.973-0.853,9.387S116.053,127,119.467,127z M153.6,91.16
				v18.773h-16.213L153.6,91.16z"/>
			<path d="M102.4,136.387H67.413l29.867-25.6c8.533-8.533,11.093-22.187,6.827-33.28C98.987,65.56,89.6,58.733,76.8,58.733
				c-18.773,0-34.133,15.36-34.133,34.133c0,5.12,3.413,8.533,8.533,8.533s8.533-3.413,8.533-8.533
				c0-9.387,7.68-17.067,17.067-17.067c7.68,0,10.24,5.973,11.093,8.533c1.707,3.413,1.707,9.387-2.56,13.653l-38.4,33.28
				c-4.267,3.413-5.12,8.533-3.413,13.653c2.56,4.267,6.827,7.68,11.947,7.68H102.4c5.12,0,8.533-2.56,8.533-7.68
				C110.933,139.8,107.52,136.387,102.4,136.387z"/>
		</g>
	</g>
</g>
<g>
</g>
<g>
</g>
<g>
</g>
<g>
</g>
<g>
</g>
<g>
</g>
<g>
</g>
<g>
</g>
<g>
</g>
<g>
</g>
<g>
</g>
<g>
</g>
<g>
</g>
<g>
</g>
<g>
</g>
</svg>
