<?xml version="1.0" encoding="iso-8859-1"?>
<!-- Generator: Adobe Illustrator 19.0.0, SVG Export Plug-In . SVG Version: 6.00 Build 0)  -->
<svg version="1.1" id="Layer_1" xmlns="http://www.w3.org/2000/svg" xmlns:xlink="http://www.w3.org/1999/xlink" x="0px" y="0px"
	 viewBox="0 0 464.856 464.856" style="enable-background:new 0 0 464.856 464.856;" xml:space="preserve">
<g>
	<g>
		<g>
			<path d="M74.138,87.463L222.3,171.277c1.545,0.874,3.24,1.297,4.919,1.297c2.824,0,5.605-1.195,7.56-3.449L352.803,33.011
				l3.563,23.476c0.751,4.952,5.014,8.501,9.875,8.501c0.499,0,1.005-0.038,1.513-0.115c5.46-0.829,9.215-5.927,8.386-11.387
				l-6.829-44.987c-0.418-2.757-1.968-5.213-4.276-6.777c-2.308-1.564-5.165-2.094-7.879-1.461l-44.208,10.3
				c-5.379,1.253-8.723,6.629-7.47,12.008c1.253,5.379,6.626,8.723,12.008,7.47l14.316-3.335L225.027,149.842L83.985,70.055
				c-4.808-2.721-10.91-1.027-13.627,3.78C67.638,78.642,69.331,84.743,74.138,87.463z"/>
			<path d="M39.775,419.966h101.002c5.523,0,10-4.477,10-10V192.997c0-5.523-4.477-10-10-10H39.775c-5.523,0-10,4.477-10,10v216.969
				C29.775,415.489,34.252,419.966,39.775,419.966z M49.775,202.997h81.002v196.969H49.775V202.997z"/>
			<path d="M314.079,114.439v295.527c0,5.523,4.477,10,10,10H417.6c5.523,0,10-4.477,10-10V114.439c0-5.523-4.477-10-10-10h-93.521
				C318.557,104.439,314.079,108.916,314.079,114.439z M334.079,124.439H407.6v275.527h-73.521V124.439z"/>
			<path d="M185.668,276.518c-5.523,0-10,4.477-10,10v123.448c0,5.523,4.477,10,10,10h93.521c5.523,0,10-4.477,10-10V286.518
				c0-5.523-4.477-10-10-10H185.668z M269.189,399.966h-73.521V296.518h73.521V399.966z"/>
			<path d="M432.564,444.856H32.293c-5.523,0-10,4.477-10,10s4.477,10,10,10h400.271c5.523,0,10-4.477,10-10
				S438.087,444.856,432.564,444.856z"/>
		</g>
	</g>
</g>
<g>
</g>
<g>
</g>
<g>
</g>
<g>
</g>
<g>
</g>
<g>
</g>
<g>
</g>
<g>
</g>
<g>
</g>
<g>
</g>
<g>
</g>
<g>
</g>
<g>
</g>
<g>
</g>
<g>
</g>
</svg>
