<svg width="217" height="225" viewBox="0 0 217 225" fill="none" xmlns="http://www.w3.org/2000/svg">
<path d="M106.042 0.747094C105.152 1.27444 94.3865 15.1612 72.8561 43.7256C55.352 66.9287 39.8822 87.6709 38.4836 89.8242C29.8375 103.271 24.582 121.377 24.582 137.769C24.6244 157.983 31.66 178.11 44.1629 193.579C65.3543 219.858 98.4553 230.713 130.454 221.924C153.511 215.552 173.346 198.413 183.941 175.737C195.258 151.436 195.173 123.926 183.729 99.5361C182.288 96.3721 179.83 91.9336 178.347 89.6484C174.66 83.9795 159.529 63.8525 158.512 63.2813C157.155 62.5342 155.248 62.7979 153.934 63.9404C152.366 65.3027 151.985 66.8408 152.748 68.6426C153.044 69.4336 156.816 74.751 161.097 80.4199C171.015 93.6475 172.879 96.5478 176.143 103.491C180.254 112.236 182.5 120.278 183.475 129.727C186.103 154.468 176.567 179.868 158.342 196.523C125.835 226.274 76.3314 221.616 49.2912 186.24C29.2018 159.961 27.7184 122.212 45.7311 94.4824C47.6807 91.4941 106.381 13.1836 108.288 11.0742C108.712 10.5908 111.001 13.4033 120.367 26.0156C126.725 34.541 132.362 41.9678 132.955 42.4951C133.675 43.2422 134.481 43.5059 135.837 43.5059C137.363 43.5059 137.829 43.2861 138.761 42.1436C140.287 40.2979 140.202 38.4082 138.507 35.9912C137.787 34.9365 131.641 26.6748 124.902 17.6221C112.145 0.615258 111.594 2.38287e-05 108.627 2.38287e-05C107.949 2.38287e-05 106.805 0.351586 106.042 0.747094Z" fill="#7C9C3C"/>
<path d="M144.144 49.3945C140.457 51.5039 142.025 57.5684 146.221 57.5684C148.382 57.5684 150.459 55.415 150.459 53.2178C150.459 49.9219 146.941 47.7686 144.144 49.3945Z" fill="#7C9C3C"/>
<path d="M77.7725 87.0557C69.2959 89.8682 64.5914 99.4922 67.431 108.193C69.0416 113.159 71.5422 116.06 76.2891 118.389C78.7473 119.575 79.4678 119.751 82.8584 119.751C86.249 119.751 86.9695 119.575 89.5125 118.345C93.115 116.587 95.9123 113.687 97.6076 109.951C98.8367 107.314 98.9639 106.567 98.9639 103.052C98.9639 99.668 98.7943 98.7012 97.8195 96.5479C96.209 93.0322 94.3441 90.7031 91.7164 88.9453C87.5205 86.1768 82.4346 85.4736 77.7725 87.0557ZM85.7404 95.5371C87.69 96.3721 89.8092 98.7891 90.3178 100.811C91.7588 106.436 87.2238 111.797 81.6717 111.05C77.7301 110.479 74.7209 106.523 75.1023 102.393C75.6109 96.9873 81.0359 93.4717 85.7404 95.5371Z" fill="#7C9C3C"/>
<path d="M125.75 90.6152C124.521 91.8018 83.0279 166.553 82.7312 168.135C82.3074 170.508 84.4689 173.145 86.8847 173.145C89.3429 173.145 89.5125 172.881 111.424 133.374C131.429 97.2949 132.743 94.7461 132.531 93.252C132.192 91.0547 130.581 89.6484 128.42 89.6484C127.318 89.6484 126.428 89.9561 125.75 90.6152Z" fill="#7C9C3C"/>
<path d="M130.412 139.746C125.707 140.977 121.554 144.58 119.392 149.326C118.206 151.963 118.036 152.71 118.036 156.226C118.036 159.741 118.163 160.488 119.35 163.037C120.071 164.619 121.384 166.729 122.232 167.739C124.394 170.288 129.056 172.661 132.658 172.969C144.229 174.111 153.256 162.378 149.569 151.084C147.958 146.118 145.458 143.218 140.838 140.977C137.914 139.526 133.294 138.999 130.412 139.746ZM138.549 149.546C143.466 152.93 142.872 160.796 137.532 163.477C131.514 166.509 124.945 160.752 126.682 153.984C127.233 151.919 129.691 149.15 131.556 148.535C133.718 147.876 136.685 148.271 138.549 149.546Z" fill="#7C9C3C"/>
</svg>
