<svg width="449" height="481" viewBox="0 0 449 481" fill="none" xmlns="http://www.w3.org/2000/svg">
<path d="M216.695 1.5971C214.59 2.4426 211.17 4.88518 209.153 7.04592C202.138 14.4676 202.576 7.79749 202.576 118.559V217.014H110.672C7.27876 217.014 13.5051 216.638 6.5772 224.06C-2.01694 233.266 -2.01694 247.734 6.5772 256.94C13.5051 264.362 7.27876 263.986 110.672 263.986H202.576V362.441C202.576 473.203 202.225 466.532 209.153 473.954C217.748 483.161 231.253 483.161 239.847 473.954C246.775 466.532 246.424 473.203 246.424 362.441V263.986H338.329C441.721 263.986 435.495 264.362 442.423 256.94C451.017 247.734 451.017 233.266 442.423 224.06C435.495 216.638 441.721 217.014 338.329 217.014H246.424V118.559C246.424 7.79749 246.775 14.4676 239.847 7.04592C233.796 0.469753 225.026 -1.5031 216.695 1.5971Z" fill="white"/>
</svg>
