<svg width="83" height="83" viewBox="0 0 83 83" fill="none" xmlns="http://www.w3.org/2000/svg">
<path d="M41.5 0C18.617 0 0.000976562 18.617 0.000976562 41.5C0.000976562 64.384 18.617 83.001 41.5 83.001C64.383 83.001 83 64.384 83 41.5C83 18.617 64.382 0 41.5 0ZM41.5 77.001C21.926 77.001 5.99998 61.075 5.99998 41.5C5.99998 21.925 21.925 6 41.5 6C61.075 6 77 21.925 77 41.5C77 61.075 61.075 77.001 41.5 77.001Z" fill="#165B6A"/>
<path d="M53.508 45.32C53.492 45.32 53.478 45.32 53.462 45.32L44.5 45.454V22C44.5 20.343 43.157 19 41.5 19C39.843 19 38.5 20.343 38.5 22V48.5C38.5 48.506 38.502 48.512 38.502 48.518C38.502 48.528 38.5 48.537 38.5 48.545C38.502 48.667 38.525 48.782 38.541 48.899C38.551 48.972 38.552 49.047 38.566 49.119C38.593 49.248 38.638 49.368 38.681 49.489C38.703 49.552 38.717 49.618 38.743 49.678C38.795 49.801 38.865 49.913 38.932 50.028C38.963 50.079 38.986 50.135 39.019 50.185C39.095 50.296 39.186 50.395 39.276 50.496C39.314 50.538 39.345 50.586 39.385 50.627C39.482 50.723 39.591 50.804 39.7 50.887C39.744 50.92 39.783 50.96 39.828 50.991C39.946 51.071 40.075 51.134 40.204 51.196C40.249 51.217 40.289 51.247 40.335 51.266C40.485 51.329 40.645 51.373 40.807 51.412C40.837 51.419 40.865 51.433 40.896 51.439C41.09 51.478 41.291 51.5 41.497 51.5C41.512 51.5 41.528 51.5 41.543 51.5L53.551 51.32C55.207 51.295 56.53 49.931 56.506 48.275C56.483 46.634 55.144 45.32 53.508 45.32Z" fill="#165B6A"/>
</svg>
