<?xml version="1.0" standalone="no"?>
<!DOCTYPE svg PUBLIC "-//W3C//DTD SVG 20010904//EN"
 "http://www.w3.org/TR/2001/REC-SVG-20010904/DTD/svg10.dtd">
<svg version="1.0" xmlns="http://www.w3.org/2000/svg"
 width="512.000000pt" height="512.000000pt" viewBox="0 0 512.000000 512.000000"
 preserveAspectRatio="xMidYMid meet">

<g transform="translate(0.000000,512.000000) scale(0.100000,-0.100000)"
fill="#000000" stroke="none">
<path d="M2438 4220 c-309 -56 -545 -269 -630 -566 -29 -103 -31 -295 -4 -394
80 -291 311 -511 602 -572 223 -46 460 12 640 156 125 100 227 258 270 416 27
100 25 291 -4 394 -76 267 -280 472 -544 546 -82 23 -255 34 -330 20z m275
-237 c92 -27 169 -73 238 -142 181 -181 215 -457 84 -676 -158 -263 -496 -347
-762 -189 -164 98 -264 274 -266 469 -1 156 52 286 162 396 87 87 201 144 326
163 48 7 161 -4 218 -21z"/>
<path d="M915 3330 c-109 -22 -208 -75 -289 -156 -219 -219 -219 -560 -1 -780
110 -111 236 -164 390 -164 182 0 338 77 446 220 70 93 100 181 106 305 9 174
-39 298 -163 421 -130 130 -316 188 -489 154z m231 -241 c65 -25 132 -88 171
-160 24 -48 28 -65 28 -144 0 -106 -19 -157 -85 -229 -178 -193 -497 -109
-565 149 -38 143 35 303 169 372 92 47 178 51 282 12z"/>
<path d="M3982 3320 c-208 -55 -363 -217 -407 -427 -18 -85 -18 -140 -1 -224
44 -208 216 -381 425 -429 80 -19 231 -8 312 22 91 34 187 105 244 180 83 109
115 203 115 338 0 160 -50 280 -165 396 -140 141 -332 194 -523 144z m200
-211 c104 -22 179 -78 228 -170 67 -126 49 -272 -46 -378 -142 -158 -389 -144
-516 28 -41 57 -60 117 -60 198 -1 175 141 320 324 332 9 1 41 -4 70 -10z"/>
<path d="M2392 2440 c-115 -15 -249 -49 -356 -91 -199 -79 -341 -172 -500
-331 l-109 -108 -66 26 c-120 48 -238 67 -396 61 -161 -6 -253 -26 -381 -86
-333 -156 -555 -477 -581 -841 -5 -69 -2 -92 11 -118 34 -66 126 -80 176 -27
19 20 25 44 36 135 20 178 70 303 172 432 89 115 235 211 392 259 107 34 311
34 419 2 41 -12 78 -26 82 -30 4 -4 -10 -44 -31 -88 -82 -172 -130 -355 -145
-551 -6 -75 -4 -98 10 -127 34 -73 128 -87 179 -27 26 31 31 56 41 197 22 319
215 657 494 862 147 108 345 191 530 222 85 14 297 14 382 0 338 -56 637 -249
825 -532 122 -183 188 -376 203 -597 8 -116 10 -125 37 -153 56 -58 145 -44
180 29 13 28 15 51 10 116 -17 207 -67 399 -146 559 -22 45 -36 85 -32 89 5 5
42 18 83 31 60 17 99 22 204 22 155 0 220 -15 350 -79 247 -123 395 -340 429
-634 11 -93 17 -117 36 -137 50 -53 142 -39 176 27 13 26 16 49 11 118 -26
364 -248 685 -581 841 -126 59 -221 80 -376 86 -157 6 -268 -10 -391 -58 l-76
-29 -114 113 c-215 213 -447 338 -743 398 -116 23 -333 33 -444 19z"/>
</g>
</svg>
