<svg width="233" height="248" viewBox="0 0 233 248" fill="none" xmlns="http://www.w3.org/2000/svg">
<path d="M178.034 114.099H16.5667C9.98079 114.099 4.64136 108.417 4.64136 101.407C4.64136 94.3965 9.98079 88.7138 16.5667 88.7138H178.034C192.632 88.7138 204.508 76.0726 204.508 60.5357C204.508 44.9989 192.631 32.3577 178.034 32.3577C163.437 32.3577 151.561 44.9989 151.561 60.5357C151.561 67.5461 146.221 73.2288 139.635 73.2288C133.049 73.2288 127.71 67.5461 127.71 60.5357C127.71 31.0005 150.285 6.97162 178.034 6.97162C205.783 6.97162 228.359 31 228.359 60.5353C228.359 90.0705 205.783 114.099 178.034 114.099Z" fill="white"/>
<path d="M178.034 241.029C150.285 241.029 127.71 217 127.71 187.465C127.71 180.454 133.049 174.772 139.635 174.772C146.221 174.772 151.561 180.454 151.561 187.465C151.561 203.002 163.437 215.643 178.034 215.643C192.631 215.643 204.508 203.002 204.508 187.465C204.508 171.928 192.631 159.287 178.034 159.287H16.5667C9.98079 159.286 4.64136 153.604 4.64136 146.593C4.64136 139.583 9.98079 133.9 16.5667 133.9H178.034C205.783 133.9 228.359 157.93 228.359 187.465C228.359 217 205.783 241.029 178.034 241.029Z" fill="white"/>
<path d="M178.034 119.04H16.5667C7.43188 119.04 0 111.13 0 101.407C0 91.684 7.43188 83.7737 16.5667 83.7737H178.034C190.073 83.7737 199.867 73.3489 199.867 60.5353C199.867 47.7216 190.072 37.2969 178.034 37.2969C165.995 37.2969 156.201 47.7216 156.201 60.5353C156.201 70.2581 148.77 78.1685 139.635 78.1685C130.5 78.1685 123.069 70.2581 123.069 60.5353C123.069 28.2759 147.726 2.03101 178.035 2.03101C208.342 2.03101 233 28.2759 233 60.5353C233 92.7946 208.343 119.04 178.034 119.04ZM16.5667 93.6539C12.5506 93.6539 9.28268 97.1318 9.28268 101.407C9.28268 105.681 12.5501 109.16 16.5667 109.16H178.034C203.224 109.16 223.717 87.3469 223.717 60.5358C223.717 33.7246 203.224 11.9118 178.034 11.9118C152.844 11.9118 132.351 33.7246 132.351 60.5358C132.351 64.8104 135.618 68.2887 139.635 68.2887C143.65 68.2887 146.918 64.8109 146.918 60.5358C146.918 42.2743 160.876 27.4171 178.034 27.4171C195.191 27.4171 209.149 42.2739 209.149 60.5358C209.149 78.7977 195.191 93.6544 178.034 93.6544L16.5667 93.6539Z" fill="#7C9C3C"/>
<path d="M178.034 245.969C147.726 245.969 123.068 219.724 123.068 187.465C123.068 177.742 130.5 169.832 139.635 169.832C148.77 169.832 156.201 177.742 156.201 187.465C156.201 200.278 165.995 210.703 178.034 210.703C190.072 210.703 199.866 200.278 199.866 187.465C199.866 174.651 190.072 164.226 178.034 164.226H16.5667C7.43188 164.226 0 156.317 0 146.593C0 136.87 7.43188 128.96 16.5667 128.96H178.034C208.343 128.96 233 155.205 233 187.464C233 219.724 208.343 245.969 178.034 245.969ZM139.635 179.712C135.619 179.712 132.351 183.19 132.351 187.465C132.351 214.276 152.845 236.089 178.035 236.089C203.225 236.089 223.717 214.276 223.717 187.465C223.717 160.654 203.224 138.841 178.034 138.841H16.5667C12.5506 138.841 9.28268 142.319 9.28268 146.594C9.28268 150.869 12.5501 154.347 16.5667 154.347H178.034C195.191 154.347 209.149 169.203 209.149 187.465C209.149 205.727 195.191 220.584 178.034 220.584C160.877 220.584 146.919 205.728 146.919 187.466C146.919 183.19 143.651 179.712 139.635 179.712Z" fill="#7C9C3C"/>
<path d="M78.1009 74.3603H11.3196C8.75656 74.3603 6.67822 72.1487 6.67822 69.4202C6.67822 66.6917 8.75656 64.48 11.3196 64.48H78.1009C80.6639 64.48 82.7423 66.6917 82.7423 69.4202C82.7423 72.1487 80.6639 74.3603 78.1009 74.3603Z" fill="#7C9C3C"/>
<path d="M101.474 74.3603H98.1354C95.5724 74.3603 93.494 72.1487 93.494 69.4202C93.494 66.6917 95.5724 64.48 98.1354 64.48H101.474C104.037 64.48 106.116 66.6917 106.116 69.4202C106.116 72.1487 104.037 74.3603 101.474 74.3603Z" fill="#7C9C3C"/>
<path d="M101.474 183.52H11.3196C8.75656 183.52 6.67822 181.308 6.67822 178.58C6.67822 175.851 8.75656 173.64 11.3196 173.64H101.474C104.037 173.64 106.116 175.851 106.116 178.58C106.116 181.308 104.037 183.52 101.474 183.52Z" fill="#7C9C3C"/>
</svg>
